<?xml version="1.0" standalone="no"?>
<!DOCTYPE svg PUBLIC "-//W3C//DTD SVG 20010904//EN"
 "http://www.w3.org/TR/2001/REC-SVG-20010904/DTD/svg10.dtd">
<svg version="1.0" xmlns="http://www.w3.org/2000/svg"
 width="1600.000000pt" height="1600.000000pt" viewBox="0 0 1600.000000 1600.000000"
 preserveAspectRatio="xMidYMid meet">
<metadata>
Created by potrace 1.14, written by Peter Selinger 2001-2017
</metadata>
<g transform="translate(0.000000,1600.000000) scale(0.100000,-0.100000)"
fill="#000000" stroke="none">
<path d="M7500 14379 c-223 -83 -488 -182 -590 -219 -282 -105 -755 -280
-1270 -470 -590 -219 -964 -356 -1110 -410 -63 -22 -131 -47 -150 -55 -19 -8
-152 -57 -295 -110 -143 -53 -334 -123 -425 -157 -91 -33 -168 -64 -173 -67
-4 -4 16 -77 43 -162 86 -264 94 -306 94 -529 0 -163 -4 -210 -21 -286 -128
-550 -568 -987 -1146 -1135 -151 -38 -240 -50 -487 -60 -135 -6 -247 -13 -249
-15 -5 -5 10 -174 45 -494 121 -1109 331 -2109 649 -3090 122 -378 316 -890
440 -1165 39 -87 115 -256 135 -300 53 -121 291 -587 388 -760 223 -401 506
-847 724 -1143 37 -50 68 -94 68 -97 0 -7 -53 -13 -215 -25 -665 -49 -1464
-169 -1904 -285 -157 -42 -293 -87 -284 -96 7 -6 447 -273 905 -548 76 -46
140 -86 142 -90 3 -3 -25 -31 -61 -61 -141 -117 -457 -443 -699 -720 -181
-207 -213 -245 -209 -248 2 -2 63 15 137 37 207 63 475 124 753 170 278 46
803 116 812 108 2 -3 4 -89 4 -192 1 -169 3 -186 17 -181 10 2 78 27 152 55
414 155 1103 266 1860 301 l214 10 46 -39 c356 -299 623 -500 965 -726 409
-270 705 -430 1080 -584 30 -12 150 36 399 160 383 192 803 455 1188 745 l139
105 227 -17 c269 -19 840 -22 1072 -5 495 36 998 111 1402 208 l147 35 3 86 3
87 45 7 c25 4 117 19 205 34 336 54 707 136 990 220 212 63 515 171 515 184 0
4 -48 47 -107 96 -60 49 -110 91 -113 94 -3 4 -43 38 -90 76 -47 38 -174 143
-283 233 l-198 164 34 36 c384 412 610 719 677 924 6 21 10 41 7 44 -3 3 -48
-11 -99 -30 -418 -155 -1038 -309 -1653 -411 -315 -53 -830 -119 -847 -109 -4
2 14 32 40 66 135 175 394 552 544 792 426 684 772 1390 1068 2180 421 1124
705 2346 845 3640 33 305 54 520 51 523 -2 2 -113 7 -247 12 -276 10 -408 29
-586 86 -281 89 -557 272 -741 489 -285 337 -399 792 -301 1205 16 70 55 198
109 363 8 23 6 29 -8 34 -9 3 -44 16 -77 29 -33 12 -269 100 -525 194 -256 95
-548 203 -650 240 -102 38 -324 120 -495 183 -170 63 -519 193 -775 287 -509
189 -521 193 -825 305 -115 42 -264 97 -330 121 -66 25 -167 62 -225 84 -58
21 -197 73 -309 114 -112 42 -205 76 -205 76 -1 -1 -183 -69 -406 -151z m716
-654 c155 -58 306 -114 335 -125 30 -10 90 -32 134 -48 44 -17 215 -80 380
-141 165 -60 435 -160 600 -221 279 -104 802 -297 1250 -462 267 -98 600 -221
601 -222 1 -1 -5 -50 -12 -111 -32 -265 2 -554 97 -836 66 -198 209 -453 347
-623 307 -375 773 -664 1252 -776 134 -31 145 -35 145 -51 -5 -124 -116 -840
-190 -1211 -63 -321 -120 -564 -230 -983 -119 -451 -345 -1111 -540 -1575
-131 -313 -390 -860 -492 -1040 -11 -19 -35 -62 -53 -95 -345 -625 -729 -1192
-1151 -1700 -73 -88 -143 -171 -155 -184 -13 -13 -49 -55 -81 -93 l-58 -68
-130 5 c-141 6 -565 39 -710 55 -49 6 -236 26 -415 45 -179 19 -361 40 -405
45 -112 14 -462 53 -840 95 -451 49 -498 55 -510 64 -5 5 -74 11 -153 15 -150
7 -176 12 -166 28 4 7 9 6 13 -1 5 -7 68 -13 172 -16 258 -8 681 -13 701 -7
17 4 19 14 17 88 -1 48 -7 88 -13 93 -17 13 -89 24 -82 13 3 -6 -2 -8 -14 -5
-11 3 -18 8 -16 12 2 3 -33 7 -77 8 -45 2 -83 7 -85 13 -5 13 -89 13 -97 -1
-4 -5 -19 -8 -33 -5 -15 3 -43 2 -62 -3 -19 -5 -28 -9 -20 -10 11 -1 12 -3 2
-9 -9 -6 -6 -12 12 -21 13 -8 27 -22 29 -32 3 -12 14 -19 30 -19 14 0 28 -4
32 -10 3 -5 -7 -9 -22 -10 -15 0 -57 -2 -93 -4 -36 -2 -74 -1 -85 2 l-20 5 20
7 c11 4 32 5 48 3 16 -3 27 -1 27 6 0 6 -11 11 -25 11 -24 0 -29 12 -28 67 0
6 -7 13 -16 16 -11 3 -17 -2 -17 -14 0 -11 6 -19 13 -19 14 0 18 -36 5 -44 -4
-2 -27 -1 -50 4 -34 6 -42 5 -38 -6 3 -7 -3 -18 -12 -23 -15 -9 -14 -10 7 -11
16 0 21 -4 17 -15 -3 -9 0 -15 9 -15 8 0 15 -7 15 -15 0 -19 -14 -19 -32 -2
-7 8 -19 12 -26 11 -7 -1 -8 0 -2 3 15 7 12 23 -6 23 -8 0 -12 5 -9 10 3 6 0
10 -8 10 -17 0 -19 61 -3 72 6 5 2 8 -11 8 -12 0 -25 5 -28 10 -4 6 12 10 39
10 25 0 46 -4 46 -10 0 -5 5 -10 10 -10 6 0 5 8 -2 19 -15 24 4 51 36 52 20 0
21 1 1 9 -29 12 -78 12 -70 0 4 -6 11 -7 17 -4 7 4 8 2 4 -4 -9 -15 -56 -16
-56 -2 0 6 5 10 11 10 5 0 7 5 3 12 -6 9 -9 9 -12 0 -2 -7 -9 -12 -15 -12 -5
0 -7 3 -4 7 4 3 -4 12 -18 19 -28 14 -135 16 -135 2 0 -6 7 -8 15 -4 8 3 15 2
15 -3 0 -14 -27 -32 -51 -34 -26 -2 -69 -38 -69 -58 0 -11 -2 -11 -10 1 -9 15
-11 13 -14 -12 -1 -16 -23 -21 -31 -8 -5 8 -11 8 -21 -1 -10 -8 -14 -8 -14 -1
0 6 9 16 20 22 18 10 19 13 6 25 -18 19 -36 19 -36 1 0 -9 -8 -12 -24 -9 -15
3 -36 -3 -53 -15 -16 -11 -51 -27 -78 -35 -40 -11 -51 -19 -53 -38 -2 -13 1
-19 5 -14 4 6 15 9 23 9 8 -1 22 -2 30 -3 13 -1 13 -3 1 -10 -8 -5 -19 -7 -26
-5 -6 3 -12 -2 -12 -11 0 -9 11 -21 24 -26 13 -5 23 -14 23 -21 0 -11 -22 -12
-107 -6 -281 19 -642 38 -771 39 -111 1 -144 5 -150 16 -10 17 -3 73 9 73 5 0
9 9 9 20 0 11 10 25 23 32 21 13 34 48 16 48 -5 0 -9 -5 -9 -11 0 -5 -5 -7
-11 -3 -8 5 -7 9 1 14 19 12 4 40 -22 41 -13 0 -34 2 -48 4 -14 1 -31 -1 -39
-5 -11 -6 -8 -9 10 -15 l24 -8 -23 -8 c-24 -9 -29 -38 -10 -57 9 -9 7 -12 -10
-12 -12 0 -22 -4 -22 -9 0 -5 26 -8 58 -6 54 3 54 -2 0 -19 -13 -4 -18 -17
-19 -43 l-1 -38 -11 43 c-13 56 -27 53 -27 -7 l0 -48 -147 -7 c-155 -8 -220 1
-194 27 8 8 50 11 125 11 l113 -1 0 39 c0 21 -4 41 -9 44 -4 3 -6 9 -3 14 3 5
1 11 -5 15 -5 3 -10 -1 -10 -10 0 -12 -6 -15 -21 -10 -53 17 -93 7 -83 -20 4
-9 0 -15 -10 -15 -21 0 -22 96 -1 126 8 12 11 24 8 28 -3 3 3 6 14 6 11 0 26
-11 33 -25 7 -14 17 -25 22 -25 4 0 8 -9 8 -20 0 -17 4 -19 28 -14 15 4 28 7
29 8 3 2 23 257 23 292 0 33 -1 34 -41 34 -32 0 -42 4 -46 20 -3 13 -14 20
-29 20 -27 0 -28 3 -14 30 8 15 6 24 -6 39 -18 21 -26 20 -119 -17 l-50 -20
-7 -158 c-4 -88 -11 -205 -16 -262 l-8 -104 71 6 70 5 -65 -13 c-66 -12 -90
-11 -90 5 0 6 -9 5 -20 -1 -13 -7 -21 -22 -22 -43 -1 -18 -4 -6 -8 28 -7 60
-7 60 -8 13 -1 -27 -5 -48 -10 -48 -9 0 -141 165 -269 335 -1203 1606 -1974
3553 -2298 5800 -33 232 -57 417 -53 420 2 1 39 10 83 20 749 162 1370 671
1629 1337 101 258 142 498 132 773 -3 94 -9 188 -12 210 l-6 41 344 126 c188
70 478 177 643 238 165 61 408 151 540 200 354 129 1080 398 1760 651 160 59
301 108 314 108 14 1 151 -46 307 -104z m-2804 -9763 c4 -122 4 -123 -20 -129
-25 -6 -58 16 -35 24 7 2 9 11 6 19 -3 8 1 14 8 14 12 0 12 2 0 9 -12 7 -12
22 -1 92 15 105 18 115 30 103 5 -5 10 -64 12 -132z m1795 -239 c-14 -4 -17
-11 -13 -28 3 -13 3 -31 0 -39 -8 -20 -44 -21 -44 -2 0 11 -8 13 -33 9 -24 -4
-37 0 -47 13 -14 16 -13 17 3 11 12 -4 29 0 46 12 25 18 57 28 91 28 8 1 7 -1
-3 -4z m66 0 c-7 -2 -19 -2 -25 0 -7 3 -2 5 12 5 14 0 19 -2 13 -5z m357 -23
c0 -5 -7 -7 -15 -4 -8 4 -15 8 -15 10 0 2 7 4 15 4 8 0 15 -4 15 -10z m33 -6
c-4 -12 0 -14 23 -9 l29 5 -28 -11 c-16 -6 -31 -9 -34 -5 -6 6 3 36 11 36 3 0
3 -7 -1 -16z m-88 -14 c3 -6 -4 -10 -17 -10 -18 0 -20 2 -8 10 19 12 18 12 25
0z m205 -30 c0 -5 -2 -10 -4 -10 -3 0 -8 5 -11 10 -3 6 -1 10 4 10 6 0 11 -4
11 -10z m-170 -25 c15 -9 19 -14 10 -15 -13 0 -13 -1 0 -10 17 -11 10 -13 -14
-4 -9 3 -13 10 -10 15 3 5 -7 9 -23 9 -15 0 -35 5 -43 10 -25 16 51 11 80 -5z
m-421 -14 c6 -10 7 -22 3 -26 -4 -5 -2 -5 5 -2 16 10 43 -3 43 -20 0 -10 -6
-13 -16 -9 -9 3 -25 6 -35 6 -11 0 -17 5 -14 10 3 6 2 10 -3 10 -11 0 -23 36
-14 44 10 11 21 6 31 -13z m683 -13 c-2 -21 2 -28 15 -28 17 -1 17 -1 0 -14
-10 -8 -17 -20 -15 -28 1 -7 -2 -13 -7 -13 -6 0 -9 4 -7 8 5 17 -30 18 -68 3
-22 -9 -50 -16 -63 -16 -18 1 -15 4 13 16 45 19 45 20 25 40 -16 17 -16 18 4
26 11 4 21 12 21 18 0 6 4 9 9 5 5 -3 12 -1 15 3 3 5 18 9 33 8 24 -1 28 -5
25 -28z m-522 2 c0 -5 -5 -12 -11 -16 -12 -7 -31 15 -23 28 6 9 34 -1 34 -12z
m304 -5 c3 -8 1 -15 -4 -15 -6 0 -10 7 -10 15 0 8 2 15 4 15 2 0 6 -7 10 -15z
m-3319 -164 c-2 -2 -31 -9 -64 -16 l-61 -13 0 100 0 100 64 -83 c36 -46 63
-86 61 -88z m2443 157 c-3 -7 -18 -14 -34 -16 l-29 -2 25 14 c31 19 43 20 38
4z m304 -20 c-12 -12 -54 -7 -59 8 -2 6 10 8 33 6 23 -3 32 -8 26 -14z m615
16 c-3 -3 -12 -4 -19 -1 -8 3 -5 6 6 6 11 1 17 -2 13 -5z m221 -19 c-3 -3 -9
2 -12 12 -6 14 -5 15 5 6 7 -7 10 -15 7 -18z m-1078 -21 c0 -22 -3 -24 -52
-23 -29 0 -47 3 -40 6 6 2 12 11 12 19 0 8 7 15 15 15 28 3 33 4 41 11 12 12
24 -2 24 -28z m780 28 c0 -14 -11 -21 -26 -15 -21 8 -17 23 6 23 11 0 20 -4
20 -8z m-155 -12 c3 -5 3 -10 -2 -11 -4 0 -23 -2 -40 -5 -38 -5 -43 3 -10 16
30 12 45 12 52 0z m-310 -40 c-3 -5 -18 -10 -33 -9 l-27 1 25 8 c35 11 42 11
35 0z m364 -6 c13 -12 -13 -15 -38 -4 -16 6 -35 9 -42 4 -8 -4 -10 -3 -5 5 7
10 72 6 85 -5z m-512 -10 c-3 -3 -12 -4 -19 -1 -8 3 -5 6 6 6 11 1 17 -2 13
-5z m4403 -213 c0 -36 -2 -39 -32 -44 -18 -2 -35 -3 -37 -1 -4 3 58 84 65 84
2 0 4 -17 4 -39z m-5799 -155 c86 -20 130 -47 163 -99 68 -110 33 -257 -73
-311 -50 -25 -138 -39 -281 -45 l-145 -6 -3 -91 c-1 -50 2 -103 7 -117 10 -24
16 -27 61 -27 l51 0 -3 -62 -3 -63 -60 -2 c-237 -9 -644 -48 -845 -82 -58 -10
-109 -15 -113 -11 -5 4 -7 31 -5 61 l3 54 49 12 c27 7 53 18 57 24 13 21 -24
119 -45 119 -28 0 -209 -39 -216 -47 -9 -10 -40 -107 -40 -124 0 -8 14 -10 50
-6 l50 6 0 -64 0 -64 -57 -11 c-66 -13 -301 -70 -320 -77 -10 -4 -13 12 -13
60 0 65 0 65 30 72 58 13 78 55 205 432 l120 357 120 22 c66 12 138 24 160 28
l41 6 26 -78 c92 -274 190 -549 204 -570 16 -24 19 -24 95 -19 44 3 86 11 95
17 12 11 14 55 12 289 l-3 276 -52 3 -53 3 0 58 0 59 68 7 c221 24 582 31 663
11z m687 -12 c239 -16 294 -25 370 -61 161 -75 160 -292 -2 -335 l-43 -11 41
-21 c58 -30 76 -67 82 -173 8 -133 12 -153 33 -153 22 0 31 19 31 67 0 32 2
35 23 29 12 -3 33 -6 46 -6 22 0 23 -2 19 -62 -5 -73 -22 -113 -61 -142 -24
-18 -43 -21 -115 -21 -105 0 -168 21 -211 70 -34 39 -38 60 -44 197 -3 66 -9
105 -20 121 -17 26 -80 47 -141 47 l-36 0 0 -114 c0 -130 2 -134 79 -143 l51
-6 0 -58 c0 -32 -3 -60 -7 -62 -5 -2 -89 2 -188 9 -99 7 -215 13 -257 13 l-78
1 0 64 0 65 53 3 52 3 0 285 0 285 -52 9 -53 9 0 58 0 58 108 -5 c59 -3 203
-12 320 -20z m1297 -127 c198 -64 324 -191 360 -364 44 -207 -18 -378 -164
-452 -53 -27 -153 -51 -216 -51 -69 0 -216 27 -283 52 -181 67 -299 207 -323
384 -21 150 13 276 97 360 81 82 159 106 329 100 94 -3 137 -9 200 -29z m4335
-140 l0 -62 -148 -220 c-149 -222 -218 -322 -279 -406 -18 -26 -33 -50 -33
-53 0 -16 171 32 212 59 46 31 66 68 82 153 l12 66 69 18 c39 10 73 18 78 18
4 0 7 -78 7 -173 l0 -173 -137 -32 c-330 -77 -654 -126 -958 -146 -49 -4 -123
-9 -162 -12 l-73 -6 0 66 0 66 39 0 c76 0 83 12 54 93 l-17 47 -113 0 -114 0
-16 -37 c-31 -74 -33 -92 -13 -103 10 -6 35 -10 54 -10 l36 0 0 -59 0 -58 -82
-6 c-46 -4 -134 -7 -195 -7 l-113 0 0 65 c0 58 2 65 20 65 64 0 83 30 166 260
30 85 62 171 69 190 8 19 30 82 51 140 20 58 40 110 46 115 13 14 311 24 320
11 5 -6 12 -24 17 -41 34 -112 205 -602 213 -612 6 -7 29 -13 52 -13 37 1 44
5 76 48 19 26 97 133 173 237 76 105 165 227 198 273 34 46 58 86 55 89 -9 10
-128 -17 -182 -41 -42 -19 -54 -32 -72 -70 -12 -25 -22 -61 -22 -80 0 -34 -1
-34 -52 -41 -29 -3 -65 -8 -80 -11 l-28 -6 0 156 c0 153 0 156 23 160 12 2 76
12 142 21 134 18 422 75 530 104 100 27 95 30 95 -42z m-3340 12 c30 -6 82
-24 115 -39 55 -27 60 -27 71 -11 11 15 21 16 66 10 29 -4 61 -8 71 -8 16 -1
17 -14 15 -173 -3 -196 9 -176 -99 -163 l-56 6 -18 64 c-34 125 -101 189 -201
190 -100 0 -136 -65 -142 -258 -9 -253 49 -367 184 -367 65 0 74 12 74 102 0
78 -13 98 -68 105 l-42 6 0 65 0 65 38 -6 c20 -4 116 -15 212 -26 96 -12 194
-23 218 -26 l42 -6 0 -60 0 -59 -50 0 c-46 0 -51 -3 -61 -27 -5 -15 -9 -85 -8
-155 0 -71 -1 -131 -3 -133 -7 -7 -153 15 -156 24 -1 4 -8 16 -15 25 -11 15
-16 15 -52 3 -163 -58 -392 -3 -515 122 -71 73 -109 152 -129 268 -25 147 5
274 85 362 95 106 229 138 424 100z m760 -103 c85 -8 182 -16 215 -17 85 -3
85 -3 85 -70 l0 -59 -50 0 c-40 0 -51 -4 -60 -21 -8 -13 -10 -98 -8 -257 3
-262 9 -286 68 -317 38 -20 142 -20 180 0 56 29 60 49 60 320 l0 245 -26 10
c-14 6 -39 10 -55 10 l-29 0 0 63 0 63 98 -3 c53 -2 143 -6 200 -9 l102 -6 0
-59 0 -59 -38 0 c-71 0 -70 4 -75 -275 -5 -283 -11 -311 -78 -368 -129 -111
-473 -97 -605 25 -77 71 -78 79 -84 380 -3 146 -9 270 -13 274 -4 5 -29 11
-55 14 l-47 5 -3 63 -3 62 33 0 c18 0 103 -7 188 -14z m-1975 -986 c149 -16
290 -32 315 -35 68 -8 658 -72 798 -87 67 -7 122 -15 122 -18 0 -4 -24 -22
-52 -40 -29 -18 -69 -43 -88 -55 -96 -63 -304 -183 -422 -245 l-133 -69 -55
27 c-97 50 -282 153 -400 225 -123 75 -439 284 -480 318 l-25 20 75 -6 c41 -3
197 -19 345 -35z"/>
<path d="M6595 12987 c-65 -22 -99 -43 -138 -86 -101 -112 -60 -261 72 -261
106 0 152 138 59 180 l-39 17 24 16 c41 27 93 31 143 12 52 -20 64 -38 64 -97
0 -54 -24 -80 -156 -162 -145 -89 -204 -166 -218 -283 -5 -40 -3 -53 6 -55 61
-7 88 -4 125 15 l41 21 106 -27 c255 -65 362 -16 374 169 l5 74 -62 0 c-60 0
-61 0 -61 -28 0 -16 -9 -37 -20 -47 -17 -15 -26 -16 -83 -6 -86 15 -154 14
-210 -3 -26 -8 -47 -10 -47 -6 0 21 61 53 154 82 232 71 297 124 298 243 1 71
-16 115 -60 158 -61 59 -121 81 -237 84 -63 2 -115 -2 -140 -10z"/>
<path d="M7399 12986 c-89 -32 -154 -93 -198 -186 -23 -50 -26 -67 -26 -175 0
-109 2 -125 26 -176 36 -76 90 -133 157 -166 51 -25 67 -28 162 -28 91 0 112
3 155 25 142 70 215 233 187 415 -23 146 -107 255 -224 290 -62 18 -190 19
-239 1z m152 -106 c48 -26 69 -148 58 -336 -7 -112 -21 -151 -61 -174 -25 -13
-31 -13 -55 0 -56 31 -68 77 -68 255 0 147 2 164 23 207 27 55 60 70 103 48z"/>
<path d="M8135 12976 c-127 -53 -198 -183 -150 -276 22 -42 53 -60 107 -60 38
0 54 5 77 28 29 26 35 45 32 103 -1 21 -10 31 -42 47 l-41 20 24 15 c56 37
152 28 190 -17 23 -28 23 -83 -1 -123 -12 -19 -54 -52 -108 -85 -48 -29 -118
-82 -154 -118 -70 -69 -88 -109 -92 -200 l-2 -45 52 -3 c42 -2 59 2 83 19 l30
23 114 -27 c262 -62 362 -17 374 171 l5 72 -62 0 c-58 0 -61 -1 -61 -24 0 -13
-8 -34 -18 -46 -17 -21 -21 -22 -89 -11 -95 15 -169 13 -218 -4 -48 -17 -59
-10 -25 15 32 25 73 41 195 80 179 57 236 106 243 212 6 79 -12 130 -61 175
-66 59 -117 77 -237 80 -94 3 -111 1 -165 -21z"/>
<path d="M8957 12989 c-75 -18 -144 -66 -173 -121 -8 -15 -14 -47 -14 -72 0
-36 6 -52 28 -78 25 -27 36 -32 78 -32 64 -1 101 22 110 69 7 40 -15 84 -47
92 -50 13 10 43 85 43 64 0 99 -23 116 -76 22 -64 -26 -124 -100 -124 -18 0
-20 -6 -20 -54 l0 -53 38 -7 c22 -3 50 -15 64 -26 53 -41 41 -143 -21 -174
-30 -16 -143 -22 -175 -10 -22 8 -20 24 2 24 63 0 87 93 36 141 -21 20 -36 24
-86 24 -56 0 -62 -2 -94 -37 -29 -32 -34 -45 -34 -85 0 -128 119 -188 354
-181 111 3 126 6 181 33 98 50 139 123 121 220 -9 44 -56 100 -108 126 l-39
20 42 22 c50 27 79 75 79 135 0 87 -46 143 -143 176 -52 18 -214 21 -280 5z"/>
<path d="M9887 12233 c-3 -5 -37 -93 -77 -198 -40 -104 -87 -228 -105 -275
-134 -342 -178 -460 -185 -498 -4 -23 -9 -43 -11 -45 -2 -1 -23 -19 -46 -41
-40 -37 -42 -38 -76 -25 -43 15 -45 14 -128 -83 -56 -66 -88 -133 -70 -151 5
-5 12 5 16 25 8 35 62 112 118 166 30 29 38 32 55 23 27 -15 69 1 104 40 15
16 32 29 37 29 11 0 41 -51 41 -69 0 -5 11 -22 24 -36 17 -18 33 -63 56 -156
18 -71 30 -133 26 -136 -3 -3 -1 -12 5 -19 5 -7 30 -86 54 -176 46 -172 132
-469 145 -503 4 -11 12 -47 17 -79 5 -35 14 -61 22 -64 10 -3 12 4 6 37 -5 31
-4 41 7 41 10 0 10 2 0 8 -15 10 -62 170 -55 188 3 8 1 14 -5 14 -5 0 -12 8
-15 18 -67 228 -105 367 -101 374 3 5 1 14 -4 21 -5 7 -31 98 -57 202 -34 140
-56 205 -80 245 -61 104 -61 93 -6 149 42 43 51 59 70 133 12 45 27 97 32 113
10 32 84 113 166 181 54 46 76 96 75 171 -1 47 17 73 52 73 26 0 46 17 46 40
0 36 51 90 113 120 34 17 77 41 96 55 42 31 91 33 116 5 10 -11 31 -20 46 -20
27 0 59 22 59 40 0 10 85 50 106 50 20 0 25 -16 13 -44 -14 -30 4 -64 58 -110
34 -28 35 -30 28 -85 -3 -31 -13 -75 -22 -98 l-16 -43 32 -27 c17 -15 31 -33
31 -41 0 -7 8 -25 18 -39 10 -17 17 -47 17 -77 0 -45 3 -50 25 -56 25 -6 27
-10 50 -100 17 -65 24 -75 56 -78 47 -6 64 -28 64 -86 0 -33 8 -66 21 -91 23
-44 132 -164 164 -180 14 -8 19 -19 17 -41 -2 -24 3 -32 32 -48 21 -11 39 -31
46 -50 20 -53 26 -61 54 -64 14 -2 26 -6 27 -10 0 -4 2 -18 3 -30 2 -13 14
-33 28 -45 26 -23 55 -107 43 -126 -3 -6 3 -23 14 -37 12 -15 21 -37 21 -51 0
-28 74 -113 99 -113 49 0 102 -141 66 -180 -9 -10 -15 -29 -13 -41 2 -19 11
-25 47 -31 24 -4 51 -14 61 -23 9 -8 28 -15 43 -15 14 0 29 -4 32 -10 3 -5 25
-14 48 -20 66 -16 104 -40 132 -81 14 -22 32 -39 40 -39 8 0 21 -13 29 -29 16
-30 34 -41 68 -41 17 0 19 -4 14 -25 -5 -21 -1 -29 26 -45 47 -29 153 -60 204
-60 l43 0 148 -178 c81 -97 175 -211 208 -252 33 -41 67 -82 76 -90 27 -25
139 -166 139 -175 0 -4 -12 -32 -26 -61 -25 -50 -25 -56 -13 -103 11 -44 10
-57 -7 -110 -18 -58 -21 -61 -87 -98 -87 -47 -151 -105 -143 -130 4 -13 -6
-26 -34 -47 -29 -22 -40 -37 -40 -56 0 -16 -14 -41 -35 -64 -19 -21 -35 -42
-35 -46 0 -5 -20 -29 -45 -54 -35 -37 -45 -54 -45 -80 0 -31 -3 -34 -37 -40
-21 -3 -52 -6 -69 -6 -17 0 -37 -6 -44 -15 -7 -8 -21 -15 -31 -15 -10 0 -23
-8 -28 -17 -5 -10 -39 -29 -76 -42 -41 -14 -72 -32 -82 -47 -8 -13 -21 -24
-28 -24 -7 0 -24 -9 -37 -20 -20 -15 -43 -20 -113 -21 -94 -3 -147 -16 -168
-41 -6 -9 -28 -19 -47 -22 -19 -3 -55 -20 -80 -37 -79 -54 -84 -54 -193 -17
l-99 33 -18 -23 c-13 -16 -17 -32 -14 -51 4 -18 0 -38 -9 -52 -9 -13 -19 -42
-22 -65 -6 -34 -3 -45 18 -70 25 -29 26 -29 55 -11 17 9 34 17 40 17 14 0 23
-43 12 -54 -10 -10 60 -44 153 -74 40 -14 47 -20 47 -42 0 -22 8 -30 43 -46
l42 -19 9 -72 c8 -59 13 -73 31 -81 23 -11 36 -56 39 -137 1 -34 10 -48 56
-96 30 -31 66 -60 80 -64 45 -13 49 -22 33 -64 -14 -37 -14 -39 16 -86 32 -50
39 -79 21 -90 -18 -11 -11 -52 10 -58 13 -3 20 -14 20 -30 0 -31 -32 -55 -137
-104 -82 -38 -180 -97 -325 -194 l-87 -59 -14 33 c-8 17 -23 55 -34 83 -18 46
-178 261 -195 263 -23 3 23 -67 90 -138 22 -23 45 -61 40 -67 -6 -5 -49 37
-122 120 -27 31 -57 56 -67 56 -10 0 -21 5 -24 10 -4 6 -11 8 -16 4 -6 -3 -18
1 -28 10 -10 9 -39 17 -67 19 -50 3 -139 41 -163 71 -8 9 -22 16 -32 16 -11 0
-38 8 -62 19 -129 57 -225 69 -256 30 -13 -17 -21 -19 -43 -10 -22 8 -29 7
-40 -10 -13 -19 -14 -19 -50 11 -28 23 -43 29 -62 24 -18 -4 -49 5 -108 34
-95 45 -153 93 -144 118 4 10 -1 25 -10 35 -21 24 -12 95 21 159 13 25 30 83
39 129 15 80 15 85 -3 115 -31 49 -71 82 -133 109 -61 27 -102 62 -93 78 4 5
11 51 15 102 5 51 12 113 14 140 4 32 2 47 -6 47 -15 0 -78 43 -78 53 0 4 24
7 53 7 51 0 55 2 72 33 17 32 17 35 0 60 -31 48 -114 51 -148 5 -18 -24 -19
-31 -8 -54 6 -15 10 -28 8 -30 -5 -5 -98 63 -128 94 -15 16 -39 54 -53 85 -14
32 -33 60 -42 64 -9 3 -37 1 -61 -5 -38 -11 -47 -10 -69 5 -36 27 -87 120 -90
167 -1 23 -6 86 -10 141 l-7 100 -75 77 c-60 62 -73 80 -63 91 23 28 43 119
36 165 -4 24 -6 71 -6 102 0 55 -2 60 -34 84 -18 14 -45 31 -59 38 -15 6 -25
17 -22 23 2 6 -5 11 -18 11 -15 -1 -20 4 -19 19 4 33 -16 69 -47 87 -21 12
-42 40 -65 90 -19 40 -35 80 -35 89 0 26 45 64 92 79 24 7 56 20 71 27 32 16
70 84 50 90 -24 8 -13 41 33 102 25 34 49 61 53 61 4 0 14 12 22 26 11 22 18
25 46 21 18 -3 33 -2 33 4 0 5 7 9 15 9 16 0 20 16 6 24 -5 3 -14 -1 -21 -9
-18 -22 -45 -18 -96 11 -58 34 -69 55 -49 93 8 16 20 33 25 36 6 4 8 21 4 40
-5 30 -1 39 41 84 50 54 58 92 20 100 -24 4 -35 19 -35 49 0 17 -11 27 -46 42
-43 19 -45 22 -39 51 4 17 15 46 26 63 10 17 25 57 33 89 9 33 28 85 44 117
20 40 28 67 24 89 -5 39 -16 32 -19 -14 -1 -19 -13 -54 -27 -77 -14 -24 -31
-70 -39 -103 -8 -33 -24 -76 -35 -95 -11 -19 -23 -51 -27 -71 -7 -39 1 -50 50
-66 24 -8 31 -17 35 -43 4 -26 11 -36 30 -40 39 -9 35 -34 -16 -84 -41 -40
-46 -50 -41 -79 4 -24 -1 -42 -21 -70 -24 -36 -25 -39 -9 -71 9 -19 29 -40 46
-47 37 -16 39 -29 9 -55 -11 -10 -41 -46 -65 -79 -42 -56 -45 -63 -39 -107 6
-42 4 -48 -20 -67 -15 -12 -34 -21 -43 -21 -25 -1 -97 -36 -120 -59 -30 -30
-26 -66 13 -148 25 -52 45 -79 71 -95 31 -20 35 -27 33 -58 -3 -34 0 -37 77
-85 l80 -50 0 -135 c0 -122 -2 -138 -22 -171 l-22 -35 65 -65 c36 -35 71 -75
79 -89 7 -14 16 -77 20 -140 7 -130 17 -173 51 -213 13 -16 24 -32 24 -37 0
-5 16 -18 35 -30 30 -19 40 -20 67 -11 57 20 66 15 97 -52 31 -68 59 -96 194
-195 47 -35 89 -72 92 -83 4 -10 2 -43 -4 -72 -6 -28 -12 -90 -13 -137 l-3
-84 87 -46 c84 -44 128 -83 142 -126 3 -11 -1 -42 -9 -70 -8 -27 -15 -63 -15
-79 0 -17 -7 -41 -16 -54 -17 -24 -46 -122 -39 -129 2 -3 0 -13 -6 -23 -7 -15
-6 -21 5 -25 9 -3 18 -21 22 -40 3 -19 14 -39 24 -44 10 -6 24 -16 32 -23 7
-7 53 -33 101 -56 64 -31 95 -41 114 -37 19 5 30 1 48 -19 25 -26 68 -34 81
-14 3 6 17 8 30 5 16 -4 31 1 49 18 21 20 33 23 68 19 65 -7 123 -25 190 -59
16 -8 37 -14 47 -14 10 0 20 -6 23 -13 3 -8 26 -23 50 -35 25 -12 48 -26 52
-32 4 -6 20 -8 39 -5 23 5 48 -1 88 -19 31 -14 63 -23 71 -20 10 3 22 -6 33
-25 10 -17 26 -33 35 -36 10 -3 21 -19 24 -35 4 -17 11 -30 16 -30 5 0 19 -10
31 -22 13 -13 32 -28 43 -33 16 -9 20 -21 20 -61 0 -53 13 -79 46 -89 10 -4
19 -12 19 -18 1 -16 46 -67 60 -67 8 0 8 6 0 21 -15 28 -4 39 110 114 172 113
214 137 305 182 49 25 100 50 112 57 31 15 33 87 3 107 -18 13 -19 17 -8 47
11 28 10 37 -7 69 -11 20 -26 43 -33 50 -11 10 -11 20 -3 45 18 50 14 65 -21
79 -18 7 -58 39 -90 70 -44 43 -57 64 -57 86 1 40 -8 105 -16 125 -3 9 -15 18
-26 21 -12 3 -19 14 -19 31 0 14 -5 48 -11 76 -9 44 -15 53 -47 68 -27 13 -38
25 -42 47 -4 25 -11 31 -40 36 -62 10 -150 66 -150 94 0 7 -9 20 -19 29 -18
17 -21 17 -56 0 -31 -15 -38 -15 -46 -3 -20 31 -20 59 0 104 12 26 21 57 21
69 0 11 4 27 9 35 9 14 34 11 111 -17 75 -26 121 -21 183 22 29 20 71 39 92
43 22 3 47 15 56 26 14 17 32 21 125 27 93 5 116 10 159 33 27 16 53 34 58 42
4 7 26 23 50 33 88 41 122 59 166 86 8 5 30 10 50 12 66 6 78 9 95 23 11 10
15 22 11 38 -4 17 3 32 27 57 63 65 127 152 130 179 3 16 20 41 45 62 29 24
40 41 36 54 -6 23 56 76 153 129 58 32 69 42 66 61 -1 13 2 29 7 35 18 23 22
70 10 117 -12 46 -11 52 16 108 20 42 25 64 18 73 -15 21 -431 526 -505 614
-64 76 -104 104 -128 89 -12 -7 -78 9 -148 37 -43 17 -53 25 -49 40 7 24 -29
58 -60 58 -16 0 -27 8 -33 25 -5 13 -22 31 -37 39 -16 8 -35 26 -43 40 -17 33
-47 52 -118 75 -31 11 -79 28 -107 39 -27 11 -66 26 -85 33 -19 8 -37 15 -39
16 -2 2 4 12 14 23 40 45 -12 183 -80 211 -36 15 -84 67 -85 92 0 10 -8 32
-17 50 -9 18 -18 46 -19 62 -5 65 -17 96 -45 115 -19 14 -29 31 -31 53 -2 26
-9 34 -34 41 -22 7 -35 19 -43 42 -7 18 -26 45 -44 60 -20 17 -31 34 -29 46 4
20 -23 58 -40 58 -13 0 -131 128 -150 164 -10 18 -17 54 -18 84 0 46 -4 58
-29 83 -16 16 -40 29 -53 29 -20 0 -26 8 -36 45 -7 25 -12 53 -12 63 0 30 -24
72 -41 72 -21 0 -33 29 -18 46 8 10 4 22 -15 51 -14 21 -26 43 -26 49 0 6 -12
24 -26 39 -21 22 -25 34 -20 59 4 17 12 62 17 99 l11 69 -51 47 c-53 49 -58
60 -40 92 17 32 2 59 -32 59 -33 0 -123 -42 -136 -63 -4 -8 -18 -19 -30 -26
-20 -10 -26 -8 -44 13 -36 42 -111 29 -181 -29 -15 -13 -47 -31 -70 -40 -44
-17 -102 -81 -109 -119 -3 -13 -17 -23 -38 -29 -46 -11 -60 -33 -59 -87 1 -88
-7 -102 -116 -204 -57 -52 -108 -108 -115 -123 -6 -15 -22 -70 -35 -122 -22
-82 -30 -98 -66 -133 -23 -22 -45 -36 -49 -32 -5 5 48 153 116 329 68 176 132
343 142 370 11 28 40 103 65 168 25 66 46 121 46 123 0 7 -19 4 -23 -3z m-37
-4174 c17 -31 -4 -49 -56 -49 -34 0 -44 4 -49 20 -10 31 12 50 56 50 28 0 41
-5 49 -21z m1479 -1680 c15 -49 8 -60 -21 -32 -15 16 -19 28 -14 47 9 37 21
32 35 -15z"/>
<path d="M5400 12203 c-47 -13 -130 -37 -185 -53 -514 -146 -555 -158 -555
-169 0 -3 17 -18 38 -31 21 -14 95 -70 165 -125 l128 -100 -7 -90 c-5 -77 -10
-93 -30 -113 -13 -13 -24 -32 -24 -43 0 -41 49 -126 96 -167 l47 -42 -6 -62
c-4 -41 -11 -64 -21 -70 -9 -5 -28 -32 -42 -61 -38 -76 -62 -99 -96 -92 -51
12 -52 -7 -2 -32 27 -14 51 -28 54 -31 3 -4 23 -20 45 -37 69 -51 214 -183
376 -342 112 -111 160 -152 172 -147 34 13 87 158 102 278 4 31 11 59 16 61
12 8 -101 110 -144 130 -30 14 -36 22 -42 61 -10 67 4 133 40 194 18 30 43 88
54 127 12 40 33 96 46 125 26 56 32 107 14 125 -7 7 -7 30 2 77 11 64 10 69
-16 121 -34 70 -31 96 14 107 18 5 36 7 38 4 3 -3 9 -79 14 -169 8 -170 19
-217 51 -217 16 0 18 9 18 74 0 40 -5 131 -10 201 -12 146 -15 140 68 151 29
3 55 11 58 16 3 5 -26 41 -65 79 -39 38 -77 82 -86 99 -8 16 -28 36 -43 44
-15 8 -58 44 -97 80 -38 36 -77 65 -85 65 -8 0 -53 -12 -100 -26z"/>
<path d="M10556 11874 c-4 -14 -5 -28 -3 -31 3 -2 8 8 11 23 4 14 5 28 3 31
-3 2 -8 -8 -11 -23z"/>
<path d="M10560 11771 c0 -6 5 -13 10 -16 6 -3 10 1 10 9 0 9 -4 16 -10 16 -5
0 -10 -4 -10 -9z"/>
<path d="M10581 11729 c-3 -20 27 -80 56 -113 18 -22 33 -45 33 -53 0 -7 9
-27 20 -45 13 -21 20 -27 20 -16 0 9 -4 20 -10 23 -5 3 -10 16 -10 28 0 13
-16 39 -35 58 -19 20 -43 56 -54 80 -11 24 -20 41 -20 38z"/>
<path d="M10730 11436 c0 -9 5 -16 10 -16 6 0 10 4 10 9 0 6 -4 13 -10 16 -5
3 -10 -1 -10 -9z"/>
<path d="M10724 11385 c-13 -20 -14 -29 -5 -38 8 -8 11 -5 11 15 0 15 6 28 13
31 6 2 9 8 5 11 -3 4 -14 -4 -24 -19z"/>
<path d="M9850 11378 c0 -21 17 -41 28 -34 14 8 3 46 -14 46 -8 0 -14 -6 -14
-12z"/>
<path d="M9910 11370 c-9 -18 -8 -20 15 -20 23 0 24 2 15 20 -6 11 -13 20 -15
20 -2 0 -9 -9 -15 -20z"/>
<path d="M9960 11368 c0 -18 6 -23 25 -23 17 0 25 5 25 18 0 10 -4 16 -9 12
-5 -3 -12 -1 -16 5 -11 18 -25 11 -25 -12z"/>
<path d="M10053 11374 c-3 -8 0 -21 7 -27 10 -9 11 -9 5 2 -5 9 -1 19 10 28
17 12 17 13 2 13 -10 0 -20 -7 -24 -16z"/>
<path d="M10110 11365 c0 -21 3 -23 23 -16 33 12 35 41 3 41 -21 0 -26 -5 -26
-25z"/>
<path d="M10193 11383 c-22 -4 -33 -33 -13 -33 6 0 10 5 10 11 0 6 6 9 13 6 6
-2 11 -10 10 -16 -2 -6 4 -11 12 -11 8 0 15 4 15 9 0 16 -12 41 -19 40 -3 -1
-16 -4 -28 -6z"/>
<path d="M10268 11365 c2 -14 6 -25 7 -25 1 0 5 11 7 25 3 16 1 25 -7 25 -8 0
-10 -9 -7 -25z"/>
<path d="M10312 11382 c-7 -5 -10 -15 -7 -24 4 -11 21 -15 61 -15 46 0 54 3
54 19 0 23 -26 34 -44 19 -10 -8 -16 -9 -21 -1 -7 12 -25 13 -43 2z m38 -17
c0 -8 -7 -15 -15 -15 -8 0 -15 7 -15 15 0 8 7 15 15 15 8 0 15 -7 15 -15z"/>
<path d="M10447 11378 c-2 -7 -6 -17 -8 -22 -2 -5 6 -10 19 -11 23 -2 26 3 16
29 -7 19 -20 21 -27 4z"/>
<path d="M10500 11360 c0 -11 4 -20 9 -20 5 0 7 9 4 20 -3 11 -7 20 -9 20 -2
0 -4 -9 -4 -20z"/>
<path d="M10719 11280 c-19 -16 -31 -29 -26 -30 4 0 15 8 26 19 10 10 25 21
32 23 8 3 11 8 8 11 -3 4 -21 -7 -40 -23z"/>
<path d="M10681 11235 c0 -5 6 -19 14 -29 8 -11 15 -15 15 -10 0 6 -7 19 -15
30 -8 10 -14 15 -14 9z"/>
<path d="M10660 11119 c0 -5 5 -7 10 -4 6 3 10 8 10 11 0 2 -4 4 -10 4 -5 0
-10 -5 -10 -11z"/>
<path d="M9475 11090 c-10 -11 -16 -22 -13 -25 3 -3 13 6 22 20 20 30 16 32
-9 5z"/>
<path d="M10630 11063 c-15 -25 -22 -52 -21 -80 1 -33 -3 -43 -15 -43 -8 0
-12 -5 -9 -10 14 -23 35 13 35 57 0 30 7 55 21 75 12 16 19 31 16 34 -2 3 -15
-12 -27 -33z"/>
<path d="M10884 11086 c-10 -8 -17 -16 -14 -19 3 -2 14 4 24 14 23 22 18 25
-10 5z"/>
<path d="M10794 10982 c-62 -69 -90 -110 -80 -119 3 -3 10 5 15 18 5 13 32 49
60 79 45 48 78 91 69 90 -2 -1 -30 -31 -64 -68z"/>
<path d="M9402 10997 c-13 -15 -34 -67 -27 -67 3 0 14 18 25 40 21 40 21 51 2
27z"/>
<path d="M9134 10889 c-7 -13 -5 -15 24 -23 27 -9 29 5 2 21 -13 9 -21 9 -26
2z"/>
<path d="M4584 10829 c-110 -57 -197 -163 -253 -309 -53 -136 -91 -349 -91
-507 0 -66 -9 -224 -20 -353 -10 -129 -24 -401 -30 -604 -6 -202 -13 -372 -15
-377 -3 -4 -12 -183 -20 -396 -8 -213 -20 -424 -26 -468 -14 -94 -6 -168 22
-194 11 -10 42 -30 68 -45 l49 -26 53 43 c77 62 159 117 175 117 12 0 14 -81
14 -502 0 -276 -5 -587 -11 -691 -6 -103 -8 -199 -5 -212 10 -38 42 -50 137
-49 l87 0 13 -46 c17 -55 39 -61 111 -30 41 18 52 19 59 8 10 -16 9 1 18 -183
8 -158 21 -205 70 -249 31 -28 26 -55 -19 -109 -49 -60 -54 -87 -45 -242 l7
-125 34 -30 c25 -22 45 -30 72 -30 32 0 43 -7 84 -54 26 -29 68 -68 95 -85
122 -81 329 -110 428 -61 27 14 55 34 62 45 20 32 -15 91 -83 140 -50 35 -194
195 -194 215 0 4 31 -1 70 -11 127 -33 260 -45 357 -30 47 6 101 18 120 26 37
16 43 7 14 -19 -17 -16 -18 -20 -4 -46 15 -30 20 -32 128 -45 28 -3 65 -9 83
-12 l33 -5 -6 -207 c-3 -113 -8 -259 -10 -325 l-6 -118 23 5 c13 3 31 0 42 -8
15 -12 18 -24 14 -70 -5 -64 -18 -64 130 -5 51 20 89 39 86 43 -4 4 -47 7 -96
7 l-88 0 0 339 c0 187 3 342 8 344 4 3 66 -3 137 -13 72 -11 244 -35 384 -55
140 -20 258 -38 263 -41 4 -3 8 -115 8 -250 l0 -244 -25 0 c-14 0 -25 -4 -25
-10 0 -12 177 -12 260 0 65 9 51 13 -45 14 l-70 1 -3 85 c-2 47 0 154 3 238
l7 152 287 -2 286 -3 3 -224 c1 -141 -1 -228 -8 -235 -6 -6 -73 -9 -169 -8
-98 1 -162 -2 -166 -8 -4 -7 117 -10 359 -10 l365 0 0 238 c1 278 9 408 24
393 6 -6 10 -27 9 -47 -2 -20 2 -42 9 -50 6 -8 8 -21 5 -30 -5 -14 -4 -15 8
-5 10 8 16 9 21 1 13 -21 23 1 23 52 0 29 1 62 1 73 2 19 2 19 12 2 7 -12 10
-122 7 -323 l-3 -304 30 0 c17 0 139 -3 273 -7 l242 -6 0 246 0 247 93 0 c87
0 403 13 600 25 l87 5 0 -260 0 -260 45 0 46 0 -7 259 -7 259 49 4 c27 3 84
11 126 18 43 8 81 11 84 7 4 -4 9 -64 12 -134 4 -118 7 -130 28 -150 28 -26
30 -23 8 19 -15 29 -15 34 1 60 9 16 15 40 12 53 -2 14 0 22 4 19 5 -3 9 24 9
60 0 87 19 86 22 -1 1 -38 2 -75 4 -83 1 -8 2 -23 3 -32 1 -10 6 -18 12 -18 6
0 9 7 6 15 -4 8 -2 17 4 21 5 3 9 47 8 101 -1 61 3 98 10 102 14 9 230 45 235
40 3 -2 9 -112 15 -244 7 -132 14 -273 17 -312 6 -78 4 -75 69 -75 36 0 37 2
31 60 -3 31 -8 113 -11 182 -2 69 -7 188 -11 266 l-6 141 63 12 c35 7 88 14
119 16 52 3 55 5 61 34 6 30 4 32 -95 88 -55 31 -135 78 -176 104 l-75 47
-195 6 c-107 4 -298 13 -425 21 -234 15 -590 32 -770 39 -55 2 -111 7 -125 11
-20 5 -22 5 -10 -5 13 -10 12 -11 -3 -6 -46 15 -518 49 -600 43 -40 -3 -198
-14 -352 -26 -434 -32 -738 -51 -744 -46 -2 3 9 5 25 5 22 0 26 3 14 10 -12 8
-9 10 13 10 58 0 23 18 -50 26 -68 6 -73 8 -42 14 52 9 131 3 140 -11 5 -9 15
-8 41 4 33 17 27 21 -26 17 -18 -1 -26 2 -22 9 4 6 19 11 34 11 15 0 45 7 67
15 45 16 119 20 111 6 -12 -18 51 -21 129 -6 44 8 92 15 108 15 15 0 27 3 27
8 0 7 92 32 119 32 8 0 19 7 25 15 15 20 168 43 238 35 49 -5 57 -4 61 12 3
10 12 20 21 23 50 16 52 17 26 25 -27 7 -24 8 97 26 57 9 45 22 -27 30 -67 7
-79 25 -27 42 27 8 14 10 -75 11 -62 1 -109 -3 -113 -9 -3 -5 -12 -10 -18 -10
-7 0 -6 4 3 10 12 8 11 10 -7 10 -12 0 -24 4 -27 9 -5 8 -64 1 -141 -18 -61
-15 -52 -7 22 23 57 22 62 25 28 20 -22 -3 -67 -14 -100 -24 -66 -21 -138 -41
-325 -93 -69 -19 -178 -51 -243 -71 -124 -38 -199 -59 -381 -107 -60 -16 -123
-33 -140 -39 -17 -5 -103 -30 -191 -55 -88 -25 -193 -55 -233 -66 -79 -23
-161 -64 -169 -85 -8 -21 -23 -17 -23 5 0 30 -39 51 -91 51 -55 0 -286 44
-332 64 -50 20 -154 126 -160 161 -2 17 -12 51 -22 76 l-18 46 28 88 c27 83
28 91 17 156 -18 103 -16 195 4 203 9 3 51 6 94 6 70 0 135 9 297 41 60 12 83
30 83 64 0 26 1 26 98 46 35 6 66 18 69 25 3 7 -6 46 -19 86 -25 80 -28 201
-8 346 5 40 10 125 10 187 0 124 -25 609 -40 795 -5 63 -10 121 -10 127 0 9
13 11 45 6 53 -7 68 3 116 78 55 87 56 105 5 216 -53 116 -91 252 -82 293 4
23 -6 52 -43 127 -27 54 -54 116 -60 138 -14 54 -87 673 -100 855 -6 80 -16
222 -22 315 -9 132 -16 179 -32 209 -14 29 -21 71 -26 152 -8 125 -17 146 -83
194 -56 41 -70 39 -62 -7 9 -64 -12 -206 -40 -261 -28 -55 -111 -178 -128
-188 -5 -4 -58 40 -117 98 -58 57 -136 131 -172 164 -66 60 -272 202 -384 264
-126 70 -226 120 -239 120 -8 0 -40 -14 -72 -31z m1515 -2025 c59 -131 54
-164 -26 -164 l-43 0 0 74 c0 95 11 199 20 189 4 -4 26 -49 49 -99z m-1159 44
c24 -38 60 -150 60 -183 0 -16 -7 -25 -25 -29 -14 -4 -56 -20 -93 -37 -146
-68 -194 -81 -207 -58 -4 5 -1 38 5 73 11 55 11 69 -5 116 -18 53 -18 54 4 71
12 10 48 27 79 39 31 11 66 25 77 30 11 5 35 9 53 9 26 1 36 -5 52 -31z m3020
-2852 c0 -2 -11 -6 -25 -8 -13 -3 -22 -1 -19 3 5 9 44 13 44 5z m-154 -45 c-8
-12 -55 -20 -61 -10 -3 4 5 10 17 12 40 8 49 7 44 -2z m301 -27 c-3 -3 -12 -4
-19 -1 -8 3 -5 6 6 6 11 1 17 -2 13 -5z m-947 -134 c0 -5 -4 -10 -10 -10 -5 0
-10 5 -10 10 0 6 5 10 10 10 6 0 10 -4 10 -10z m-47 -126 c8 -8 -18 -34 -33
-34 -6 0 -8 5 -4 11 4 7 -5 10 -27 9 -46 -3 -51 -2 -44 10 7 11 98 14 108 4z
m1097 -318 c0 -3 -4 -8 -10 -11 -5 -3 -10 -1 -10 4 0 6 5 11 10 11 6 0 10 -2
10 -4z m40 -46 c0 -5 -5 -10 -11 -10 -5 0 -7 5 -4 10 3 6 8 10 11 10 2 0 4 -4
4 -10z m-2 -75 c-3 -3 -9 2 -12 12 -6 14 -5 15 5 6 7 -7 10 -15 7 -18z"/>
<path d="M9120 10850 c0 -5 5 -10 10 -10 6 0 10 5 10 10 0 6 -4 10 -10 10 -5
0 -10 -4 -10 -10z"/>
<path d="M10329 10813 l-24 -28 28 24 c15 14 27 26 27 28 0 8 -8 1 -31 -24z"/>
<path d="M10690 10825 c-7 -9 -11 -17 -9 -20 3 -2 10 5 17 15 14 24 10 26 -8
5z"/>
<path d="M9110 10809 c0 -4 6 -12 14 -18 11 -9 15 -8 20 5 9 22 8 23 -14 21
-11 -1 -20 -4 -20 -8z"/>
<path d="M9350 10781 c0 -12 5 -21 10 -21 6 0 10 6 10 14 0 8 -4 18 -10 21 -5
3 -10 -3 -10 -14z"/>
<path d="M9124 10756 c-4 -9 -13 -15 -20 -12 -13 5 -18 -6 -15 -26 0 -5 -3 -8
-9 -8 -5 0 -10 -4 -10 -10 0 -5 6 -10 13 -10 14 0 61 69 53 77 -3 3 -8 -2 -12
-11z"/>
<path d="M10388 10763 c12 -2 30 -2 40 0 9 3 -1 5 -23 4 -22 0 -30 -2 -17 -4z"/>
<path d="M10270 10744 c0 -8 5 -12 10 -9 6 4 8 11 5 16 -9 14 -15 11 -15 -7z"/>
<path d="M10339 10748 c-5 -18 -2 -75 4 -69 11 11 17 71 6 71 -5 0 -9 -1 -10
-2z"/>
<path d="M10196 10665 c-10 -7 -16 -19 -14 -26 2 -7 11 0 21 15 20 30 19 31
-7 11z"/>
<path d="M9068 10653 c6 -2 18 -2 25 0 6 3 1 5 -13 5 -14 0 -19 -2 -12 -5z"/>
<path d="M9895 10646 c11 -8 29 -16 41 -16 11 0 26 -6 33 -12 10 -11 11 -10 6
4 -4 9 -18 19 -33 23 -15 3 -36 8 -47 12 l-20 5 20 -16z"/>
<path d="M10316 10638 c-3 -13 -6 -35 -6 -49 0 -14 -9 -34 -20 -44 -11 -10
-20 -23 -20 -29 0 -6 14 4 30 22 24 26 30 41 30 77 0 50 -4 57 -14 23z"/>
<path d="M9040 10625 c0 -8 2 -15 4 -15 2 0 11 -3 20 -6 23 -9 20 13 -4 26
-16 9 -20 8 -20 -5z"/>
<path d="M9356 10625 c-3 -9 -5 -38 -5 -63 2 -46 2 -46 9 13 7 64 6 76 -4 50z"/>
<path d="M9020 10583 c0 -6 5 -15 10 -18 15 -9 12 -25 -4 -19 -23 9 -28 -14
-7 -26 18 -9 21 -7 27 15 3 14 10 25 15 25 5 0 9 4 9 10 0 5 -7 7 -16 3 -9 -3
-20 0 -25 8 -6 9 -9 10 -9 2z"/>
<path d="M10000 10543 c0 -5 25 -6 55 -5 34 3 61 -1 70 -8 12 -10 15 -9 15 4
0 13 -12 16 -70 16 -38 0 -70 -3 -70 -7z"/>
<path d="M10626 10532 c-12 -19 22 -41 61 -39 36 1 40 3 32 19 -14 27 -26 30
-32 8 -7 -26 -24 -26 -32 0 -6 20 -20 26 -29 12z"/>
<path d="M10740 10527 c0 -17 37 -43 47 -33 3 3 3 13 -1 22 -4 9 -9 14 -13 11
-3 -4 -12 -2 -20 4 -10 9 -13 8 -13 -4z"/>
<path d="M10941 10526 c-13 -16 10 -41 31 -33 8 4 7 6 -4 6 -10 1 -18 7 -18
15 0 8 8 17 18 19 14 4 14 5 1 6 -9 0 -22 -5 -28 -13z"/>
<path d="M11070 10531 c0 -21 13 -41 26 -41 17 0 17 5 4 31 -11 20 -30 26 -30
10z"/>
<path d="M10822 10513 c2 -9 8 -18 15 -20 7 -3 9 3 6 16 -6 25 -26 28 -21 4z"/>
<path d="M10877 10523 c-3 -5 0 -19 8 -29 15 -20 18 -11 6 20 -4 11 -10 15
-14 9z"/>
<path d="M10912 10510 c0 -14 2 -19 5 -12 2 6 2 18 0 25 -3 6 -5 1 -5 -13z"/>
<path d="M11006 10514 c-8 -22 -9 -21 20 -21 18 0 24 4 20 14 -3 8 -6 17 -6
19 0 12 -29 2 -34 -12z"/>
<path d="M10131 10484 c0 -11 3 -14 6 -6 3 7 2 16 -1 19 -3 4 -6 -2 -5 -13z"/>
<path d="M8987 10483 c-12 -11 -8 -41 6 -46 15 -6 41 29 32 43 -7 11 -29 13
-38 3z m31 -14 c-2 -6 -8 -10 -13 -10 -5 0 -11 4 -13 10 -2 6 4 11 13 11 9 0
15 -5 13 -11z"/>
<path d="M10231 10481 c-19 -12 -1 -40 22 -32 15 5 15 9 5 24 -9 11 -18 14
-27 8z"/>
<path d="M10257 10433 c-3 -5 -1 -18 4 -31 10 -26 39 -27 47 -2 4 12 2 13 -9
3 -18 -17 -29 -16 -29 2 0 8 5 15 11 15 5 0 7 5 4 10 -7 12 -22 13 -28 3z"/>
<path d="M9345 10419 c-4 -6 -5 -12 -2 -15 2 -3 7 2 10 11 7 17 1 20 -8 4z"/>
<path d="M8955 10409 c-4 -6 -1 -15 6 -20 21 -13 31 -11 27 8 -4 20 -24 28
-33 12z"/>
<path d="M10161 10415 c-1 -18 33 -53 59 -60 22 -7 23 -6 11 9 -7 9 -19 16
-26 16 -7 0 -20 10 -28 23 -9 12 -16 18 -16 12z"/>
<path d="M10313 10359 c-15 -15 -5 -39 14 -39 10 0 13 -6 9 -15 -3 -9 1 -18
10 -22 8 -3 24 -23 35 -44 11 -22 21 -39 23 -39 2 0 3 17 2 38 0 33 -3 38 -20
34 -15 -4 -18 -1 -13 11 4 11 2 14 -9 10 -17 -6 -18 8 -1 26 7 9 8 12 0 7 -16
-9 -43 3 -43 20 0 8 5 14 10 14 6 0 10 -4 10 -10 0 -5 5 -10 11 -10 8 0 8 5
-1 15 -15 18 -22 19 -37 4z"/>
<path d="M10256 10351 c-4 -7 -5 -15 -2 -18 9 -9 19 4 14 18 -4 11 -6 11 -12
0z"/>
<path d="M10943 10285 c-15 -13 -23 -25 -17 -25 7 0 15 7 18 16 4 9 13 14 21
10 9 -3 15 0 15 9 0 20 -4 19 -37 -10z"/>
<path d="M10210 10260 c0 -5 5 -10 10 -10 6 0 10 5 10 10 0 6 -4 10 -10 10 -5
0 -10 -4 -10 -10z"/>
<path d="M10986 10245 c11 -49 22 -63 85 -106 33 -22 76 -56 95 -75 47 -45
179 -131 289 -187 49 -26 90 -45 92 -43 2 1 -40 26 -92 55 -130 71 -210 123
-275 181 -30 27 -77 63 -105 82 -33 22 -58 48 -73 78 -17 36 -21 39 -16 15z"/>
<path d="M10425 10230 c-3 -5 1 -10 9 -10 9 0 16 5 16 10 0 6 -4 10 -9 10 -6
0 -13 -4 -16 -10z"/>
<path d="M9300 10216 c0 -9 5 -16 10 -16 6 0 10 4 10 9 0 6 -4 13 -10 16 -5 3
-10 -1 -10 -9z"/>
<path d="M10438 10192 c-12 -5 -15 -11 -8 -21 7 -12 11 -12 24 -2 29 24 20 37
-16 23z"/>
<path d="M10468 10163 c-21 -5 -24 -23 -4 -23 8 0 17 -14 21 -31 7 -29 8 -30
26 -13 20 18 17 36 -6 28 -9 -4 -12 0 -8 14 5 22 -4 30 -29 25z"/>
<path d="M10798 10156 c-27 -12 -57 -43 -58 -59 0 -5 12 1 28 13 15 11 38 30
52 40 28 22 19 24 -22 6z"/>
<path d="M10680 10156 c0 -2 11 -6 25 -8 13 -3 22 -1 19 3 -5 9 -44 13 -44 5z"/>
<path d="M10600 10135 c-7 -8 -18 -15 -24 -15 -7 0 -23 -11 -36 -25 -13 -14
-19 -25 -13 -25 5 0 18 9 28 20 10 11 25 20 32 20 8 0 26 9 40 20 24 18 24 20
6 20 -11 0 -26 -7 -33 -15z"/>
<path d="M9302 10065 c-1 -28 -7 -56 -14 -63 -6 -6 -9 -14 -6 -18 13 -13 29
39 25 84 l-3 47 -2 -50z"/>
<path d="M10015 10080 c-56 -8 -62 -14 -60 -60 3 -53 12 -61 69 -64 38 -2 50
1 62 18 17 25 18 44 2 79 -16 32 -22 35 -73 27z m55 -51 c17 -30 -5 -51 -49
-47 -36 3 -49 22 -37 54 9 23 73 18 86 -7z"/>
<path d="M10375 10070 c3 -5 8 -10 11 -10 2 0 4 5 4 10 0 6 -5 10 -11 10 -5 0
-7 -4 -4 -10z"/>
<path d="M10450 10069 c0 -5 5 -7 10 -4 6 3 10 8 10 11 0 2 -4 4 -10 4 -5 0
-10 -5 -10 -11z"/>
<path d="M10737 9973 c-4 -3 -7 -11 -7 -17 0 -6 5 -5 12 2 6 6 9 14 7 17 -3 3
-9 2 -12 -2z"/>
<path d="M9342 9933 c21 -9 40 -24 43 -34 4 -11 15 -19 25 -19 18 0 18 2 -3
23 -23 24 -70 48 -90 46 -7 -1 5 -8 25 -16z"/>
<path d="M9692 9916 c-11 -24 -10 -26 13 -26 28 0 31 8 12 34 -12 17 -14 16
-25 -8z"/>
<path d="M9750 9918 c0 -18 6 -24 24 -26 19 -1 24 3 23 17 -1 11 -5 17 -10 14
-4 -2 -14 1 -22 7 -13 10 -15 8 -15 -12z"/>
<path d="M9880 9933 c-16 -7 -39 -33 -40 -46 0 -4 7 -4 16 1 9 5 25 7 34 5 13
-4 18 2 18 21 0 27 -3 28 -28 19z"/>
<path d="M9946 9933 c-14 -14 -5 -39 14 -39 12 0 20 7 20 17 0 17 -23 32 -34
22z"/>
<path d="M10028 9928 c7 -7 12 -18 12 -25 0 -21 -20 -15 -29 9 -5 13 -10 17
-14 11 -7 -11 17 -43 32 -43 5 0 14 6 21 14 9 12 17 13 36 4 13 -6 27 -8 32
-4 11 12 -30 37 -49 31 -10 -3 -20 -1 -24 5 -3 5 -11 10 -18 10 -8 0 -8 -3 1
-12z"/>
<path d="M10145 9927 c-28 -21 -10 -37 38 -32 23 2 47 -1 53 -6 17 -14 44 0
44 22 0 24 -25 35 -44 20 -10 -9 -16 -9 -21 -1 -5 8 -11 8 -19 1 -8 -7 -16 -7
-22 -1 -7 7 -16 5 -29 -3z m120 -17 c0 -7 -6 -15 -12 -17 -8 -3 -13 4 -13 17
0 13 5 20 13 18 6 -3 12 -11 12 -18z"/>
<path d="M10750 9934 c0 -6 7 -19 15 -30 8 -10 14 -14 14 -9 0 6 -6 19 -14 29
-8 11 -15 15 -15 10z"/>
<path d="M9630 9915 c0 -15 26 -32 36 -23 2 3 2 13 -2 22 -8 20 -34 21 -34 1z"/>
<path d="M9227 9903 c-4 -3 -7 -11 -7 -17 0 -6 5 -5 12 2 6 6 9 14 7 17 -3 3
-9 2 -12 -2z"/>
<path d="M9507 9878 c-12 -19 -18 -21 -28 -10 -23 21 -41 14 -19 -8 24 -24 29
-25 44 -5 10 13 19 14 64 5 41 -9 55 -18 67 -39 20 -39 41 -54 74 -53 31 1 56
-21 63 -53 4 -17 13 -11 67 42 56 54 66 60 82 50 11 -7 24 -30 30 -52 33 -126
130 -495 138 -520 11 -39 63 -233 96 -360 15 -55 33 -122 42 -148 8 -27 13
-51 10 -54 -10 -10 -90 -24 -107 -18 -11 3 -20 0 -23 -10 -5 -12 -11 -13 -32
-3 -21 10 -29 9 -42 -5 -15 -15 -15 -18 1 -35 24 -28 85 -36 108 -15 17 15 18
15 18 -4 0 -17 6 -21 34 -20 57 2 85 -20 102 -80 9 -30 13 -60 11 -67 -3 -8
-2 -17 3 -22 10 -12 40 -116 40 -143 0 -15 -6 -21 -21 -21 -11 0 -17 -4 -14
-10 3 -5 17 -10 31 -10 13 0 24 -5 24 -11 0 -8 -13 -9 -40 -5 -25 4 -40 2 -40
-4 0 -13 32 -24 83 -29 22 -2 -18 -41 -48 -47 -45 -8 -47 -29 -2 -21 17 3 40
8 49 12 12 5 20 1 24 -11 8 -26 28 -68 35 -74 16 -15 59 -79 59 -88 0 -24 -20
-11 -36 24 l-17 37 -116 -6 c-64 -3 -125 -2 -135 2 -22 9 -32 66 -13 78 6 4
23 7 37 8 14 0 26 5 27 10 3 13 -68 7 -85 -7 -14 -12 -7 -73 11 -95 5 -8 33
-13 67 -13 54 0 58 -1 58 -24 0 -14 9 -38 21 -54 11 -17 21 -35 21 -41 0 -6 8
-11 19 -11 10 0 24 -7 31 -15 7 -8 19 -15 26 -15 8 0 14 -4 14 -10 0 -5 18
-10 40 -10 46 0 49 10 20 58 -27 43 -25 52 9 52 25 0 39 -16 125 -135 53 -74
96 -138 96 -143 0 -4 9 -15 20 -25 11 -9 20 -24 20 -32 0 -8 4 -15 9 -15 5 0
39 -42 76 -92 84 -115 81 -112 89 -100 3 5 -17 39 -44 75 -28 37 -50 70 -50
75 0 6 -7 12 -15 16 -8 3 -15 12 -15 21 0 8 -3 15 -7 15 -15 1 -245 330 -240
344 6 17 50 24 168 25 63 1 130 6 149 11 19 6 56 10 82 10 41 0 48 3 48 20 0
11 -5 20 -10 20 -6 0 -9 19 -8 43 l3 42 -65 3 c-72 3 -77 -9 -4 -14 25 -1 47
-4 49 -6 2 -2 1 -24 -2 -51 -5 -46 -7 -47 -37 -46 -17 1 -66 -2 -108 -6 -52
-5 -78 -4 -78 2 0 6 -9 13 -21 16 -33 9 -22 50 16 58 17 4 38 10 48 14 10 4
17 4 16 -1 -1 -5 0 -11 1 -14 9 -25 7 -47 -7 -57 -12 -9 -13 -13 -4 -13 14 0
51 37 51 52 0 4 -7 8 -15 8 -8 0 -15 4 -15 9 0 5 -3 16 -6 25 -5 12 0 16 20
16 14 0 26 5 26 11 0 7 -11 9 -29 6 -23 -5 -30 -2 -39 19 -7 13 -16 24 -22 24
-13 0 -13 -6 2 -29 17 -27 3 -51 -29 -51 -22 0 -31 -7 -42 -31 -12 -28 -12
-33 3 -41 30 -17 16 -25 -55 -32 -39 -3 -79 -10 -88 -16 -14 -7 -25 1 -57 43
-49 66 -62 89 -70 133 -3 19 -10 37 -15 40 -5 3 -9 20 -9 38 0 17 -4 36 -9 42
-4 5 -18 54 -30 109 -12 55 -34 137 -49 182 -30 95 -26 106 39 107 l43 1 3
-45 c2 -25 5 -58 7 -75 2 -16 4 -42 5 -57 2 -37 38 -70 62 -58 25 14 39 12 39
-3 0 -19 60 -20 67 -1 3 8 14 14 25 14 15 0 18 -5 13 -22 -4 -13 -16 -30 -27
-39 -17 -13 -19 -19 -9 -38 7 -12 15 -19 19 -17 5 3 14 1 22 -4 12 -7 11 -12
-4 -28 -17 -19 -17 -20 4 -27 21 -7 20 -8 -15 -33 -34 -24 -35 -27 -19 -39 10
-7 25 -11 34 -8 9 3 37 6 62 7 l44 2 -14 28 c-11 22 -11 35 -2 63 11 33 10 37
-14 56 -36 28 -24 46 31 47 44 1 45 1 29 -17 -35 -38 6 -95 42 -59 9 9 15 10
20 2 4 -6 18 -14 32 -18 23 -6 23 -6 8 7 -10 8 -18 19 -18 25 0 13 82 3 93
-12 4 -6 5 5 2 24 -5 30 -2 40 27 70 18 19 42 40 53 46 16 10 18 14 7 25 -10
11 -14 10 -18 -8 -4 -12 -14 -25 -24 -28 -9 -3 -25 -14 -35 -25 -27 -30 -36
-24 -29 18 5 33 3 41 -18 54 -13 9 -33 17 -43 19 -14 3 -21 14 -23 35 -2 17
-13 41 -26 53 -23 21 -24 21 -54 4 -17 -10 -36 -28 -42 -41 -6 -15 -16 -22
-25 -18 -18 6 -27 -8 -35 -54 -6 -36 -14 -40 -58 -26 -19 6 -25 4 -29 -13 -7
-27 -33 -27 -40 -1 -4 16 -10 19 -27 14 -43 -15 -61 -10 -63 16 -6 64 -22 177
-29 198 -6 20 -11 22 -33 17 -83 -23 -90 -23 -95 -6 -13 39 -59 210 -68 249
-9 39 -8 46 11 66 12 12 21 26 21 30 0 5 -9 -2 -19 -15 -11 -13 -23 -21 -27
-17 -4 4 -24 72 -44 150 -21 79 -54 204 -74 278 -20 74 -42 160 -48 190 -6 30
-14 64 -19 75 -19 48 -30 97 -25 110 7 19 -31 95 -48 95 -9 0 -12 -7 -9 -20 6
-24 -4 -26 -29 -3 -14 13 -18 13 -13 2 3 -9 -14 -33 -44 -63 l-50 -49 -29 30
c-21 23 -34 30 -53 26 -20 -4 -32 3 -53 29 -14 18 -31 39 -37 46 -5 6 -22 12
-36 12 -15 0 -34 7 -43 15 -16 14 -19 13 -33 -7z m751 -1249 c18 -28 4 -42
-43 -44 -29 -1 -35 3 -35 20 0 18 28 40 55 44 6 0 16 -9 23 -20z m-118 -15
c-25 -25 -60 -27 -84 -3 -17 16 4 23 30 9 23 -13 27 -12 35 3 6 9 17 17 26 17
13 0 12 -5 -7 -26z m670 -114 c0 -32 17 -50 46 -50 30 0 45 -22 38 -57 -3 -17
-1 -39 4 -50 6 -11 7 -25 2 -32 -12 -20 -38 -6 -42 21 -2 15 -11 24 -25 26
-18 3 -21 8 -16 36 7 46 -13 59 -87 54 -52 -3 -60 -1 -60 15 0 10 8 17 20 17
12 0 25 10 31 23 6 12 22 30 37 38 24 15 28 15 40 1 6 -9 12 -28 12 -42z m-15
-100 c0 -23 -4 -25 -53 -28 -55 -3 -71 9 -58 44 4 11 18 14 58 12 49 -3 53 -5
53 -28z m-130 -21 c4 -12 2 -26 -4 -32 -19 -19 -12 -47 14 -59 29 -13 31 -21
9 -42 -21 -21 -34 -12 -34 25 0 24 -4 29 -25 29 -30 0 -33 15 -5 30 11 6 17
16 14 25 -7 18 2 45 15 45 5 0 13 -9 16 -21z m165 -39 c13 -8 10 -14 -15 -35
-51 -42 -73 -30 -34 19 23 29 27 30 49 16z m-130 -159 c0 -8 -91 -23 -98 -16
-2 1 12 12 30 23 23 15 37 18 50 11 10 -5 18 -13 18 -18z m-370 -226 c0 -9 -6
-12 -15 -9 -8 4 -15 10 -15 15 0 5 7 9 15 9 8 0 15 -7 15 -15z m106 -10 c4 -8
3 -26 0 -40 -5 -19 -13 -25 -35 -25 -36 0 -55 22 -47 55 5 21 12 25 42 25 22
0 37 -6 40 -15z m-111 -25 c3 -5 1 -10 -4 -10 -6 0 -11 5 -11 10 0 6 2 10 4
10 3 0 8 -4 11 -10z m140 -80 c14 -16 16 -23 7 -32 -9 -9 -15 -9 -24 0 -7 7
-20 12 -29 12 -20 0 -33 27 -16 34 25 10 45 5 62 -14z"/>
<path d="M9191 9847 c-13 -21 -12 -21 5 -5 10 10 16 20 13 22 -3 3 -11 -5 -18
-17z"/>
<path d="M10802 9850 c0 -14 2 -19 5 -12 2 6 2 18 0 25 -3 6 -5 1 -5 -13z"/>
<path d="M10222 9848 c-7 -7 -12 -16 -12 -21 0 -5 7 -1 16 8 9 9 14 18 12 20
-2 3 -10 -1 -16 -7z"/>
<path d="M11574 9815 c11 -8 23 -15 28 -15 4 0 8 -7 8 -16 0 -8 5 -12 10 -9
15 9 3 23 -33 41 -29 13 -30 13 -13 -1z"/>
<path d="M9148 9806 c-19 -14 -23 -26 -10 -26 4 0 13 9 20 20 14 23 13 24 -10
6z"/>
<path d="M10773 9770 c-32 -68 -28 -87 3 -22 14 29 24 56 22 61 -2 5 -13 -13
-25 -39z"/>
<path d="M10201 9794 c0 -11 3 -14 6 -6 3 7 2 16 -1 19 -3 4 -6 -2 -5 -13z"/>
<path d="M9105 9760 c-3 -5 -1 -10 4 -10 6 0 11 5 11 10 0 6 -2 10 -4 10 -3 0
-8 -4 -11 -10z"/>
<path d="M11669 9750 c-13 -10 -19 -19 -12 -20 6 0 15 5 18 10 11 18 37 11 86
-25 50 -36 69 -43 69 -25 0 6 8 10 18 10 14 0 15 2 2 10 -9 5 -19 5 -27 -2
-10 -8 -24 -3 -54 17 -22 16 -42 32 -45 37 -9 14 -30 9 -55 -12z"/>
<path d="M10120 9685 c-13 -14 -21 -27 -18 -30 2 -3 15 6 28 20 13 14 21 27
18 30 -2 3 -15 -6 -28 -20z"/>
<path d="M11889 9679 c16 -6 28 -6 35 1 7 7 -1 10 -24 9 -33 0 -34 -1 -11 -10z"/>
<path d="M11968 9683 c6 -2 18 -2 25 0 6 3 1 5 -13 5 -14 0 -19 -2 -12 -5z"/>
<path d="M12048 9683 c7 -3 16 -2 19 1 4 3 -2 6 -13 5 -11 0 -14 -3 -6 -6z"/>
<path d="M12145 9660 c27 -12 43 -12 25 0 -8 5 -22 9 -30 9 -10 0 -8 -3 5 -9z"/>
<path d="M10740 9651 c0 -6 4 -13 10 -16 6 -3 7 1 4 9 -7 18 -14 21 -14 7z"/>
<path d="M10061 9637 c9 -7 25 -37 37 -67 11 -30 21 -49 21 -42 1 7 -6 28 -14
48 -8 19 -11 42 -8 51 4 10 2 14 -5 9 -6 -3 -13 -2 -17 4 -3 5 -12 10 -18 10
-7 -1 -6 -5 4 -13z"/>
<path d="M12219 9636 c18 -9 54 -15 80 -15 l46 2 -55 7 c-30 4 -66 11 -80 14
-15 4 -12 1 9 -8z"/>
<path d="M10770 9604 c0 -8 5 -12 10 -9 6 3 10 10 10 16 0 5 -4 9 -10 9 -5 0
-10 -7 -10 -16z"/>
<path d="M12443 9613 c9 -2 23 -2 30 0 6 3 -1 5 -18 5 -16 0 -22 -2 -12 -5z"/>
<path d="M11150 9606 c0 -2 7 -9 15 -16 12 -10 15 -10 15 4 0 9 -7 16 -15 16
-8 0 -15 -2 -15 -4z"/>
<path d="M10389 9585 c42 -19 47 -19 31 0 -7 8 -24 15 -39 15 -25 -1 -25 -1 8
-15z"/>
<path d="M10910 9590 c0 -5 5 -10 10 -10 6 0 10 5 10 10 0 6 -4 10 -10 10 -5
0 -10 -4 -10 -10z"/>
<path d="M11228 9593 c7 -3 16 -2 19 1 4 3 -2 6 -13 5 -11 0 -14 -3 -6 -6z"/>
<path d="M10743 9562 c-7 -12 -8 -24 -2 -33 7 -11 9 -10 9 5 0 14 5 17 25 12
29 -7 32 1 8 20 -24 18 -26 17 -40 -4z"/>
<path d="M11366 9565 c4 -8 10 -12 15 -9 11 6 2 24 -11 24 -5 0 -7 -7 -4 -15z"/>
<path d="M11180 9562 c0 -5 12 -19 27 -33 l26 -24 -23 33 c-25 33 -30 38 -30
24z"/>
<path d="M10427 9533 c-4 -3 -7 -13 -7 -22 1 -13 3 -13 11 2 11 19 8 33 -4 20z"/>
<path d="M10796 9517 c3 -10 9 -15 12 -12 3 3 0 11 -7 18 -10 9 -11 8 -5 -6z"/>
<path d="M11340 9520 c0 -5 5 -10 10 -10 6 0 10 5 10 10 0 6 -4 10 -10 10 -5
0 -10 -4 -10 -10z"/>
<path d="M10760 9493 c0 -6 8 -17 18 -24 16 -13 16 -13 2 6 -8 11 -16 22 -17
24 -2 2 -3 0 -3 -6z"/>
<path d="M11243 9464 c-10 -26 13 -39 43 -25 16 7 30 8 33 3 6 -9 111 -13 111
-4 0 10 -22 42 -29 42 -5 0 -12 -10 -15 -22 l-7 -23 -10 24 c-7 18 -12 21 -23
12 -11 -9 -15 -9 -18 1 -4 11 -8 11 -20 0 -11 -9 -18 -10 -23 -2 -9 15 -35 12
-42 -6z m37 -9 c0 -8 -7 -15 -15 -15 -16 0 -20 12 -8 23 11 12 23 8 23 -8z"/>
<path d="M11463 9464 c-9 -24 13 -41 37 -26 12 7 21 8 25 2 3 -6 11 -10 17
-10 6 0 8 3 5 6 -3 4 -2 15 4 25 7 15 6 19 -5 19 -8 0 -18 -5 -22 -11 -4 -8
-9 -8 -17 0 -16 16 -37 13 -44 -5z m37 -9 c0 -8 -7 -15 -15 -15 -16 0 -20 12
-8 23 11 12 23 8 23 -8z"/>
<path d="M11610 9459 c0 -10 4 -19 9 -19 5 0 16 -3 24 -6 11 -4 13 1 10 18 -6
30 -43 36 -43 7z"/>
<path d="M11676 9464 c-9 -23 -8 -24 14 -24 11 0 20 2 20 4 0 12 -13 36 -20
36 -4 0 -11 -7 -14 -16z"/>
<path d="M11730 9466 c0 -22 20 -30 73 -33 34 -1 50 3 54 13 3 8 3 18 -1 21
-11 11 -81 10 -89 -1 -6 -8 -10 -7 -14 2 -7 17 -23 15 -23 -2z m110 -11 c0 -8
-7 -15 -15 -15 -16 0 -20 12 -8 23 11 12 23 8 23 -8z"/>
<path d="M11875 9471 c-3 -5 -1 -12 5 -16 6 -4 8 -11 5 -16 -4 -5 1 -9 9 -9
17 0 20 9 10 34 -7 18 -20 21 -29 7z"/>
<path d="M11190 9450 c0 -11 4 -20 9 -20 5 0 7 9 4 20 -3 11 -7 20 -9 20 -2 0
-4 -9 -4 -20z"/>
<path d="M10797 9429 c4 -13 8 -18 11 -10 2 7 -1 18 -6 23 -8 8 -9 4 -5 -13z"/>
<path d="M10157 9399 c4 -13 8 -18 11 -10 2 7 -1 18 -6 23 -8 8 -9 4 -5 -13z"/>
<path d="M11665 9390 c-15 -17 -16 -20 -3 -20 9 0 19 7 22 16 10 25 1 27 -19
4z"/>
<path d="M11144 9376 c11 -9 27 -16 35 -16 21 0 2 16 -29 24 -24 7 -24 6 -6
-8z"/>
<path d="M11580 9365 c-14 -8 -20 -14 -15 -14 6 0 21 6 35 14 14 8 21 14 15
14 -5 0 -21 -6 -35 -14z"/>
<path d="M10924 9333 c-20 -27 -22 -33 -6 -20 28 25 45 13 38 -28 -5 -24 -1
-38 15 -56 l21 -24 -16 24 c-11 17 -14 37 -10 63 5 27 3 38 -6 38 -7 0 -10 8
-7 20 7 28 3 25 -29 -17z"/>
<path d="M11385 9350 c-13 -6 -15 -9 -5 -9 8 0 22 4 30 9 18 12 2 12 -25 0z"/>
<path d="M11210 9332 c6 -13 14 -21 18 -18 3 4 -2 14 -12 24 -18 16 -18 16 -6
-6z"/>
<path d="M11338 9343 c7 -3 16 -2 19 1 4 3 -2 6 -13 5 -11 0 -14 -3 -6 -6z"/>
<path d="M10200 9320 c6 -11 13 -20 16 -20 2 0 0 9 -6 20 -6 11 -13 20 -16 20
-2 0 0 -9 6 -20z"/>
<path d="M11295 9330 c-16 -7 -17 -9 -3 -9 9 -1 20 4 23 9 7 11 7 11 -20 0z"/>
<path d="M8880 9303 c0 -5 13 -17 28 -27 l27 -19 -24 26 c-26 28 -31 32 -31
20z"/>
<path d="M10838 9263 c5 -25 6 -25 13 -8 11 29 10 35 -5 35 -9 0 -12 -8 -8
-27z"/>
<path d="M12728 9283 c7 -3 16 -2 19 1 4 3 -2 6 -13 5 -11 0 -14 -3 -6 -6z"/>
<path d="M9256 9272 c-2 -4 -1 -14 5 -22 5 -8 9 -39 9 -68 0 -31 4 -51 10 -47
11 7 8 84 -5 105 -5 9 -4 15 3 18 7 2 12 8 12 13 0 11 -27 12 -34 1z"/>
<path d="M9157 9254 c-16 -9 -27 -18 -24 -20 3 -3 20 4 38 15 39 24 28 28 -14
5z"/>
<path d="M9329 9225 c17 -20 31 -41 31 -47 0 -11 11 -21 65 -60 17 -12 10 -2
-17 25 -27 26 -48 53 -48 60 0 14 -41 57 -54 57 -5 0 6 -16 23 -35z"/>
<path d="M12630 9240 c-36 -28 -21 -31 19 -3 19 12 28 23 20 23 -8 0 -25 -9
-39 -20z"/>
<path d="M10836 9215 c-9 -26 -7 -32 5 -12 6 10 9 21 6 23 -2 3 -7 -2 -11 -11z"/>
<path d="M12631 9184 c0 -11 3 -14 6 -6 3 7 2 16 -1 19 -3 4 -6 -2 -5 -13z"/>
<path d="M11118 9168 c12 -6 25 -22 28 -35 4 -14 14 -23 25 -23 16 0 14 6 -15
35 -20 19 -41 35 -48 34 -7 0 -3 -5 10 -11z"/>
<path d="M10620 9166 c0 -2 7 -7 16 -10 8 -3 12 -2 9 4 -6 10 -25 14 -25 6z"/>
<path d="M11580 9140 c0 -5 4 -10 9 -10 5 0 35 -23 65 -51 65 -59 77 -53 14 7
-49 46 -88 70 -88 54z"/>
<path d="M10796 9121 c-12 -5 -15 -10 -9 -14 6 -4 16 0 23 8 14 17 13 17 -14
6z"/>
<path d="M11404 9108 l-19 -23 25 20 c14 11 27 21 29 22 2 2 0 3 -6 3 -5 0
-18 -10 -29 -22z"/>
<path d="M11530 9120 c-8 -5 -10 -10 -5 -10 6 0 17 5 25 10 8 5 11 10 5 10 -5
0 -17 -5 -25 -10z"/>
<path d="M11260 9098 c0 -19 2 -20 10 -8 13 19 13 30 0 30 -5 0 -10 -10 -10
-22z"/>
<path d="M12631 9087 c-14 -17 -53 -57 -87 -87 -35 -30 -65 -61 -69 -69 -5
-12 -3 -12 12 0 42 34 183 173 183 181 0 16 -16 7 -39 -25z"/>
<path d="M10716 9101 c-4 -5 3 -7 14 -4 23 6 26 13 6 13 -8 0 -17 -4 -20 -9z"/>
<path d="M11330 9073 c0 -20 3 -33 8 -29 4 4 7 21 7 37 0 16 -3 29 -7 29 -5 0
-8 -16 -8 -37z"/>
<path d="M9267 9080 c-3 -11 -1 -23 4 -26 5 -3 9 6 9 20 0 31 -6 34 -13 6z"/>
<path d="M9474 9085 c22 -17 40 -20 32 -6 -3 5 -16 11 -28 14 -22 6 -22 5 -4
-8z"/>
<path d="M11020 9060 c-13 -9 -13 -10 0 -10 8 0 22 5 30 10 13 9 13 10 0 10
-8 0 -22 -5 -30 -10z"/>
<path d="M11385 9060 l-30 -8 27 -1 c15 0 30 4 33 9 3 6 5 9 3 9 -2 -1 -16 -5
-33 -9z"/>
<path d="M10810 9050 c0 -5 5 -10 10 -10 6 0 10 5 10 10 0 6 -4 10 -10 10 -5
0 -10 -4 -10 -10z"/>
<path d="M9550 9046 c0 -3 15 -12 33 -20 l32 -16 -24 20 c-21 19 -41 26 -41
16z"/>
<path d="M11220 9034 c0 -14 3 -15 18 -3 9 7 19 15 21 16 2 2 -5 3 -17 3 -14
0 -22 -6 -22 -16z"/>
<path d="M9258 9017 c-3 -19 -2 -25 4 -19 6 6 8 18 6 28 -3 14 -5 12 -10 -9z"/>
<path d="M9635 8995 c11 -9 34 -23 50 -31 28 -14 29 -14 10 1 -11 9 -33 23
-50 31 -28 14 -29 14 -10 -1z"/>
<path d="M11220 8994 c0 -8 5 -12 10 -9 6 4 8 11 5 16 -9 14 -15 11 -15 -7z"/>
<path d="M11185 8980 c3 -5 8 -10 11 -10 2 0 4 5 4 10 0 6 -5 10 -11 10 -5 0
-7 -4 -4 -10z"/>
<path d="M10853 8952 c9 -10 17 -23 17 -29 0 -11 42 -53 54 -53 5 0 -6 16 -23
35 -17 20 -31 40 -31 44 0 5 -8 12 -17 15 -16 6 -16 6 0 -12z"/>
<path d="M12140 8959 c0 -5 5 -7 10 -4 6 3 10 8 10 11 0 2 -4 4 -10 4 -5 0
-10 -5 -10 -11z"/>
<path d="M8285 8941 c-6 -4 -39 -24 -75 -43 -164 -87 -380 -211 -380 -218 0
-18 59 -21 90 -5 18 9 33 15 35 13 2 -2 15 -32 30 -68 14 -36 33 -70 40 -75 7
-6 15 -22 17 -35 3 -19 6 -13 12 23 5 26 9 47 11 47 1 0 28 -9 61 -20 32 -11
64 -18 70 -16 9 3 13 49 16 150 3 157 2 152 66 187 19 11 29 9 66 -9 24 -12
48 -22 55 -22 12 0 13 -19 11 -191 l-1 -107 44 -17 44 -17 61 31 c34 17 64 31
67 31 3 0 5 -19 6 -42 0 -24 3 -37 6 -30 2 6 8 10 13 7 6 -4 45 92 65 162 6
22 8 22 35 8 35 -18 51 -19 85 -3 26 12 34 28 13 28 -10 0 -108 44 -477 211
-70 32 -73 33 -86 20z"/>
<path d="M11059 8933 c-13 -16 -12 -17 4 -4 9 7 17 15 17 17 0 8 -8 3 -21 -13z"/>
<path d="M12328 8943 c7 -3 16 -2 19 1 4 3 -2 6 -13 5 -11 0 -14 -3 -6 -6z"/>
<path d="M12125 8930 c-3 -5 -1 -10 4 -10 6 0 11 5 11 10 0 6 -2 10 -4 10 -3
0 -8 -4 -11 -10z"/>
<path d="M9490 8921 c0 -5 -3 -16 -6 -25 -10 -26 10 -18 23 9 9 20 8 25 -3 25
-8 0 -14 -4 -14 -9z"/>
<path d="M9540 8921 c0 -5 -2 -16 -5 -23 -4 -9 2 -14 15 -14 21 0 24 5 14 30
-7 17 -24 22 -24 7z"/>
<path d="M9594 8915 c-8 -19 4 -35 24 -34 15 1 15 2 0 6 -10 2 -18 8 -18 13 0
5 8 14 18 19 16 10 16 10 -1 11 -10 0 -20 -7 -23 -15z"/>
<path d="M9667 8923 c-15 -14 -6 -39 13 -39 13 0 19 5 15 14 -3 7 -5 18 -5 23
0 11 -14 12 -23 2z"/>
<path d="M9720 8912 c0 -12 5 -24 10 -27 18 -11 50 6 50 26 0 20 -15 26 -25 9
-5 -8 -11 -7 -21 1 -11 9 -14 7 -14 -9z"/>
<path d="M9804 8917 c-7 -20 8 -42 24 -36 7 3 6 13 -3 29 -12 23 -14 23 -21 7z"/>
<path d="M11671 8904 c0 -11 3 -14 6 -6 3 7 2 16 -1 19 -3 4 -6 -2 -5 -13z"/>
<path d="M12053 8913 c9 -2 25 -2 35 0 9 3 1 5 -18 5 -19 0 -27 -2 -17 -5z"/>
<path d="M11020 8883 c-22 -23 -23 -25 -4 -15 12 6 24 18 28 27 7 20 5 19 -24
-12z"/>
<path d="M11940 8899 c0 -5 5 -7 10 -4 6 3 10 8 10 11 0 2 -4 4 -10 4 -5 0
-10 -5 -10 -11z"/>
<path d="M9910 8885 c7 -9 15 -13 17 -11 7 7 -7 26 -19 26 -6 0 -6 -6 2 -15z"/>
<path d="M10640 8870 c-7 -17 -10 -33 -8 -36 3 -3 11 9 17 27 14 42 7 49 -9 9z"/>
<path d="M9240 8885 c0 -3 9 -14 20 -25 13 -13 20 -15 20 -7 0 7 -5 18 -12 25
-12 12 -28 16 -28 7z"/>
<path d="M11880 8880 c-9 -6 -10 -10 -3 -10 6 0 15 5 18 10 8 12 4 12 -15 0z"/>
<path d="M9940 8862 c0 -5 7 -15 15 -22 8 -7 15 -8 15 -2 0 5 -7 15 -15 22 -8
7 -15 8 -15 2z"/>
<path d="M10958 8858 c5 -5 16 -8 23 -6 8 3 3 7 -10 11 -17 4 -21 3 -13 -5z"/>
<path d="M11660 8861 c0 -5 7 -12 16 -15 14 -5 15 -4 4 9 -14 17 -20 19 -20 6z"/>
<path d="M11735 8850 c-8 -13 5 -13 25 0 13 8 13 10 -2 10 -9 0 -20 -4 -23
-10z"/>
<path d="M9991 8815 c21 -29 100 -107 105 -103 2 2 -24 31 -58 64 -34 32 -55
50 -47 39z"/>
<path d="M9271 8813 c-1 -6 -4 -20 -7 -30 -5 -17 -5 -17 6 0 6 10 9 23 6 30
-3 9 -5 9 -5 0z"/>
<path d="M10313 8801 c0 -3 -3 -17 -7 -30 -17 -50 67 -83 97 -38 13 20 13 26
0 50 -12 24 -20 27 -53 25 -21 -1 -38 -4 -37 -7z"/>
<path d="M10890 8801 c0 -5 6 -14 14 -20 12 -10 13 -8 9 8 -5 21 -23 30 -23
12z"/>
<path d="M9260 8744 c0 -8 5 -12 10 -9 6 4 8 11 5 16 -9 14 -15 11 -15 -7z"/>
<path d="M10481 8709 c-18 -30 -19 -33 -2 -63 10 -17 26 -31 37 -31 14 0 18
-7 17 -25 l-2 -25 11 23 c8 16 20 22 42 22 17 0 36 4 41 8 16 12 45 72 34 72
-5 0 -14 11 -19 25 -9 23 -14 25 -75 25 -62 0 -66 -1 -84 -31z m144 -19 c12
-38 -4 -50 -65 -50 -50 0 -60 3 -65 20 -4 12 -1 27 5 35 23 27 116 24 125 -5z"/>
<path d="M9250 8712 c0 -14 37 -58 44 -51 2 2 -7 18 -20 34 -13 17 -24 24 -24
17z"/>
<path d="M10135 8682 c17 -11 32 -18 34 -15 8 6 -13 20 -39 28 -23 6 -22 5 5
-13z"/>
<path d="M10728 8673 c7 -3 16 -2 19 1 4 3 -2 6 -13 5 -11 0 -14 -3 -6 -6z"/>
<path d="M10907 8647 c-20 -22 -24 -32 -15 -38 8 -5 19 3 30 23 27 43 18 52
-15 15z"/>
<path d="M10970 8659 c0 -5 5 -7 10 -4 6 3 10 8 10 11 0 2 -4 4 -10 4 -5 0
-10 -5 -10 -11z"/>
<path d="M9332 8624 c27 -46 43 -54 21 -10 -10 19 -23 37 -30 40 -6 3 -3 -11
9 -30z"/>
<path d="M9461 8557 c14 -7 35 -18 45 -26 10 -7 6 -2 -9 13 -15 14 -36 26 -45
25 -12 0 -9 -4 9 -12z"/>
<path d="M10847 8563 c-8 -13 15 -67 33 -78 15 -9 12 12 -4 28 -8 7 -16 25
-18 38 -2 16 -6 20 -11 12z"/>
<path d="M11420 8551 c0 -17 37 -37 48 -26 9 8 -8 36 -18 30 -5 -3 -10 -1 -10
4 0 6 -4 11 -10 11 -5 0 -10 -8 -10 -19z"/>
<path d="M11487 8550 c-4 -16 0 -20 19 -20 22 0 23 3 14 20 -6 11 -15 20 -19
20 -5 0 -11 -9 -14 -20z"/>
<path d="M11540 8551 c0 -20 42 -38 48 -21 2 6 11 6 23 -1 11 -6 25 -8 32 -5
7 2 4 5 -5 5 -20 1 -25 31 -6 31 6 0 9 2 6 5 -3 3 -18 1 -33 -5 -20 -7 -31 -8
-39 0 -15 15 -26 12 -26 -9z"/>
<path d="M11664 8555 c-6 -15 2 -35 15 -35 5 0 11 11 13 25 6 28 -18 36 -28
10z"/>
<path d="M11750 8562 c0 -18 12 -42 21 -42 14 0 11 20 -6 36 -8 9 -15 11 -15
6z"/>
<path d="M11790 8564 c0 -12 21 -44 29 -44 5 0 11 11 13 25 4 21 1 25 -18 25
-13 0 -24 -3 -24 -6z"/>
<path d="M11860 8551 c0 -16 6 -21 26 -21 33 0 30 33 -4 38 -17 3 -22 -2 -22
-17z"/>
<path d="M11923 8553 c-9 -23 14 -40 36 -26 14 8 21 9 30 0 12 -12 16 -10 25
19 6 19 2 21 -40 21 -30 0 -48 -5 -51 -14z m39 -8 c0 -5 -5 -11 -11 -13 -6 -2
-11 4 -11 13 0 9 5 15 11 13 6 -2 11 -8 11 -13z"/>
<path d="M10977 8519 c7 -7 15 -10 18 -7 3 3 -2 9 -12 12 -14 6 -15 5 -6 -5z"/>
<path d="M9516 8476 c-7 -28 1 -56 16 -56 6 0 6 6 -1 14 -7 8 -9 25 -5 40 3
14 4 26 1 26 -3 0 -8 -11 -11 -24z"/>
<path d="M10908 8473 c6 -2 18 -2 25 0 6 3 1 5 -13 5 -14 0 -19 -2 -12 -5z"/>
<path d="M10962 8465 c9 -10 21 -16 28 -13 7 2 -1 10 -16 17 -27 12 -28 11
-12 -4z"/>
<path d="M10040 8445 c0 -8 5 -15 10 -15 6 0 10 4 10 9 0 5 12 12 28 14 22 3
20 4 -10 6 -28 1 -38 -3 -38 -14z"/>
<path d="M10035 8410 c-3 -5 -1 -10 4 -10 6 0 11 5 11 10 0 6 -2 10 -4 10 -3
0 -8 -4 -11 -10z"/>
<path d="M9560 8405 c0 -2 10 -10 23 -16 20 -11 21 -11 8 4 -13 16 -31 23 -31
12z"/>
<path d="M9750 8332 c0 -27 34 -72 55 -72 6 0 5 4 -1 8 -6 4 -21 23 -33 42
-11 19 -21 29 -21 22z"/>
<path d="M12350 8285 c-7 -9 -11 -17 -9 -20 3 -2 10 5 17 15 14 24 10 26 -8 5z"/>
<path d="M10155 8240 c-3 -11 -12 -20 -18 -20 -7 -1 -1 -9 12 -20 25 -22 49
-17 30 6 -6 7 -9 20 -6 29 4 8 2 17 -3 20 -5 3 -11 -4 -15 -15z"/>
<path d="M9978 8243 c7 -3 16 -2 19 1 4 3 -2 6 -13 5 -11 0 -14 -3 -6 -6z"/>
<path d="M10053 8233 c9 -2 23 -2 30 0 6 3 -1 5 -18 5 -16 0 -22 -2 -12 -5z"/>
<path d="M10764 8206 c-9 -24 5 -36 42 -36 31 0 35 3 32 23 -2 17 -11 23 -36
25 -22 2 -34 -2 -38 -12z"/>
<path d="M7990 8166 c0 -2 7 -7 16 -10 8 -3 12 -2 9 4 -6 10 -25 14 -25 6z"/>
<path d="M11626 8157 c3 -10 9 -15 12 -12 3 3 0 11 -7 18 -10 9 -11 8 -5 -6z"/>
<path d="M8004 8126 c-7 -18 14 -58 27 -51 5 4 9 13 9 21 0 19 13 18 63 -7 48
-24 47 -23 -7 20 -41 33 -83 40 -92 17z"/>
<path d="M11646 8075 c4 -8 10 -12 15 -9 11 6 2 24 -11 24 -5 0 -7 -7 -4 -15z"/>
<path d="M10277 8053 c-18 -17 -5 -33 28 -33 23 0 35 5 35 14 0 21 -47 35 -63
19z"/>
<path d="M10035 8040 c-7 -12 2 -12 30 0 19 8 19 9 -2 9 -12 1 -25 -3 -28 -9z"/>
<path d="M9940 7995 c-10 -30 -15 -35 -33 -29 -22 6 -22 6 -2 -9 25 -19 32
-15 40 23 5 23 12 30 31 30 14 0 22 4 19 10 -14 23 -44 9 -55 -25z"/>
<path d="M10010 8010 c0 -5 5 -10 10 -10 6 0 10 5 10 10 0 6 -4 10 -10 10 -5
0 -10 -4 -10 -10z"/>
<path d="M9850 7955 c-7 -9 -11 -17 -8 -20 2 -2 12 4 21 15 9 11 13 20 8 20
-5 0 -14 -7 -21 -15z"/>
<path d="M10080 7730 c0 -5 5 -10 10 -10 6 0 10 5 10 10 0 6 -4 10 -10 10 -5
0 -10 -4 -10 -10z"/>
<path d="M10355 7680 c-3 -5 -1 -10 4 -10 6 0 11 5 11 10 0 6 -2 10 -4 10 -3
0 -8 -4 -11 -10z"/>
<path d="M9910 7635 c-16 -19 -6 -45 17 -44 17 1 17 2 1 6 -10 2 -18 11 -18
18 0 7 8 15 18 17 11 2 13 6 6 11 -7 4 -17 0 -24 -8z"/>
<path d="M7879 7602 c-2 -24 -1 -45 2 -48 12 -7 15 9 9 51 l-6 40 -5 -43z"/>
<path d="M9967 7620 c-4 -16 0 -20 18 -20 18 0 22 4 18 20 -3 11 -11 20 -18
20 -7 0 -15 -9 -18 -20z"/>
<path d="M10022 7618 c2 -12 8 -23 14 -25 7 -2 10 6 7 22 -6 30 -26 34 -21 3z"/>
<path d="M10078 7623 c-7 -25 -1 -33 21 -33 11 0 12 3 5 8 -7 4 -14 16 -16 27
-4 19 -4 19 -10 -2z"/>
<path d="M10132 7618 c4 -30 23 -33 24 -3 1 16 -3 25 -13 25 -9 0 -13 -8 -11
-22z"/>
<path d="M10210 7619 c0 -15 5 -19 15 -15 8 3 15 1 15 -4 0 -6 5 -10 10 -10 6
0 10 8 10 18 0 14 2 15 10 2 6 -9 25 -15 50 -16 35 0 40 2 40 23 0 18 -5 22
-25 21 -17 -2 -25 -8 -25 -20 0 -10 -4 -18 -10 -18 -5 0 -10 9 -10 20 0 23 -4
24 -30 10 -13 -7 -21 -7 -25 0 -11 17 -25 11 -25 -11z"/>
<path d="M10390 7634 c0 -6 6 -19 14 -29 13 -18 14 -18 26 5 10 20 10 22 -3
17 -8 -3 -20 0 -26 6 -7 7 -11 7 -11 1z"/>
<path d="M10457 7633 c-13 -13 -7 -31 13 -36 21 -5 24 1 14 27 -7 17 -16 20
-27 9z"/>
<path d="M8006 7572 c-3 -5 1 -15 9 -22 16 -14 20 -3 6 19 -5 8 -11 9 -15 3z"/>
<path d="M10475 7550 c-3 -5 -2 -10 4 -10 5 0 13 5 16 10 3 6 2 10 -4 10 -5 0
-13 -4 -16 -10z"/>
<path d="M10280 7516 c0 -9 5 -16 10 -16 6 0 10 4 10 9 0 6 -4 13 -10 16 -5 3
-10 -1 -10 -9z"/>
<path d="M10421 7504 c0 -11 3 -14 6 -6 3 7 2 16 -1 19 -3 4 -6 -2 -5 -13z"/>
<path d="M8048 7362 c-120 -47 -218 -88 -218 -91 0 -3 4 -12 9 -20 8 -12 16
-11 52 7 29 15 47 18 55 11 6 -5 19 -6 29 -3 10 4 20 1 25 -6 7 -11 11 -11 24
-1 9 7 14 16 11 20 -4 8 38 28 107 52 21 7 40 20 43 29 3 9 27 24 55 34 46 17
53 17 105 2 30 -9 55 -21 55 -25 0 -5 15 -12 33 -16 17 -4 78 -22 135 -40 57
-19 110 -31 118 -28 8 3 36 -2 63 -11 46 -15 81 -13 81 3 0 4 -26 15 -57 25
-32 9 -101 30 -153 46 -52 15 -147 44 -212 64 -64 20 -122 36 -130 35 -7 0
-111 -39 -230 -87z"/>
<path d="M10390 7420 c0 -5 5 -10 10 -10 6 0 10 5 10 10 0 6 -4 10 -10 10 -5
0 -10 -4 -10 -10z"/>
<path d="M10419 7371 c-29 -30 -33 -46 -4 -18 15 15 26 29 24 31 -2 2 -11 -4
-20 -13z"/>
<path d="M10185 7329 c-4 -6 -5 -12 -2 -15 2 -3 7 2 10 11 7 17 1 20 -8 4z"/>
<path d="M10866 7332 c-3 -5 -2 -19 1 -32 6 -22 7 -23 14 -4 4 10 8 25 8 32 1
14 -15 16 -23 4z"/>
<path d="M8155 7320 c-7 -12 2 -30 16 -30 5 0 9 9 9 20 0 21 -15 27 -25 10z"/>
<path d="M8416 7314 c-4 -9 -4 -19 -1 -22 6 -6 35 18 35 29 0 16 -28 10 -34
-7z"/>
<path d="M10670 7323 c0 -5 7 -16 15 -27 19 -24 39 -12 22 14 -11 19 -37 28
-37 13z"/>
<path d="M10736 7314 c-8 -22 -9 -21 19 -26 28 -6 30 -1 11 25 -16 21 -22 21
-30 1z"/>
<path d="M10790 7309 c0 -12 5 -16 15 -13 8 4 15 1 15 -5 0 -6 5 -11 10 -11 6
0 10 10 10 23 0 16 -6 22 -25 23 -18 1 -25 -3 -25 -17z"/>
<path d="M10906 7314 c-10 -27 -7 -31 19 -26 21 3 23 7 14 23 -12 23 -25 24
-33 3z"/>
<path d="M10980 7305 c0 -26 7 -29 34 -19 27 10 20 44 -9 44 -20 0 -25 -5 -25
-25z"/>
<path d="M11050 7309 c-11 -19 -9 -20 44 -18 43 2 56 6 59 21 4 14 -1 18 -19
18 -15 0 -24 -6 -24 -15 0 -8 -7 -15 -15 -15 -8 0 -15 7 -15 15 0 22 -17 18
-30 -6z"/>
<path d="M11170 7305 c0 -28 20 -35 21 -7 0 10 3 12 6 5 8 -21 22 -15 16 7 -8
30 -43 26 -43 -5z"/>
<path d="M11237 7310 c-4 -16 0 -20 19 -20 22 0 23 3 14 20 -6 11 -15 20 -19
20 -5 0 -11 -9 -14 -20z"/>
<path d="M11290 7309 c0 -14 5 -19 14 -16 8 3 17 3 21 -1 11 -11 75 -8 75 3 0
6 -4 17 -9 24 -8 12 -13 11 -30 -10 l-20 -24 -1 23 c0 17 -6 22 -25 22 -19 0
-25 -5 -25 -21z"/>
<path d="M10330 7310 c-8 -5 -10 -10 -5 -10 6 0 17 5 25 10 8 5 11 10 5 10 -5
0 -17 -5 -25 -10z"/>
<path d="M8083 7298 c-27 -13 -29 -26 -7 -35 11 -4 22 1 30 12 25 34 17 42
-23 23z"/>
<path d="M8470 7300 c-8 -5 -11 -13 -6 -17 5 -4 11 -2 13 5 3 6 9 12 14 12 6
0 8 -4 5 -9 -3 -4 3 -16 13 -25 16 -15 19 -15 35 3 16 18 16 19 -15 30 -38 13
-40 13 -59 1z"/>
<path d="M8130 7290 c0 -5 5 -10 11 -10 5 0 7 5 4 10 -3 6 -8 10 -11 10 -2 0
-4 -4 -4 -10z"/>
<path d="M10260 7280 c0 -5 7 -7 15 -4 8 4 15 8 15 10 0 2 -7 4 -15 4 -8 0
-15 -4 -15 -10z"/>
<path d="M8600 7265 c7 -8 17 -12 22 -9 6 4 5 10 -3 15 -22 14 -33 10 -19 -6z"/>
<path d="M10224 7249 c-19 -22 -19 -22 4 -10 12 6 22 16 22 21 0 15 -5 12 -26
-11z"/>
<path d="M8040 7249 c0 -5 5 -7 10 -4 6 3 10 8 10 11 0 2 -4 4 -10 4 -5 0 -10
-5 -10 -11z"/>
<path d="M8456 7245 c-3 -8 -1 -15 4 -15 13 0 22 18 11 24 -5 3 -11 -1 -15 -9z"/>
<path d="M10930 7220 c0 -33 7 -48 40 -84 42 -46 95 -149 85 -166 -3 -5 -1
-10 4 -10 6 0 27 -32 47 -72 35 -69 36 -73 20 -99 -20 -34 -20 -39 -1 -39 8 0
24 14 35 32 17 28 17 34 5 48 -18 20 -126 250 -128 273 -1 9 -9 19 -19 23 -31
10 -68 63 -68 100 0 19 -4 34 -10 34 -5 0 -10 -18 -10 -40z"/>
<path d="M10170 7204 c0 -14 4 -23 10 -19 6 3 10 15 10 26 0 10 -4 19 -10 19
-5 0 -10 -12 -10 -26z"/>
<path d="M8570 7209 c0 -5 5 -7 10 -4 6 3 10 8 10 11 0 2 -4 4 -10 4 -5 0 -10
-5 -10 -11z"/>
<path d="M8416 7182 c-9 -26 -1 -41 13 -26 5 5 5 18 1 29 -7 19 -7 19 -14 -3z"/>
<path d="M8491 7176 c-8 -10 -6 -19 10 -40 11 -14 25 -24 30 -21 15 10 10 25
-7 25 -12 0 -15 6 -10 25 7 27 -5 33 -23 11z"/>
<path d="M8086 7158 c-10 -39 -6 -44 14 -19 11 12 17 27 14 32 -9 16 -21 10
-28 -13z"/>
<path d="M10130 7145 c-6 -8 -10 -19 -8 -24 1 -6 8 1 15 14 13 28 11 31 -7 10z"/>
<path d="M8605 7139 c-4 -6 -5 -12 -2 -15 2 -3 7 2 10 11 7 17 1 20 -8 4z"/>
<path d="M10035 7140 c-3 -6 1 -7 9 -4 18 7 21 14 7 14 -6 0 -13 -4 -16 -10z"/>
<path d="M10032 7100 c0 -14 2 -19 5 -12 2 6 2 18 0 25 -3 6 -5 1 -5 -13z"/>
<path d="M11913 7057 c0 -19 4 -23 19 -19 22 5 20 35 -3 40 -12 2 -16 -4 -16
-21z"/>
<path d="M8083 7010 c-13 -35 4 -43 24 -11 9 15 9 22 0 30 -10 7 -16 3 -24
-19z"/>
<path d="M8416 7031 c-4 -7 -5 -15 -2 -18 9 -9 19 4 14 18 -4 11 -6 11 -12 0z"/>
<path d="M11927 7023 c-4 -3 -6 -18 -6 -32 1 -17 3 -20 6 -8 2 9 11 17 19 17
8 0 14 -8 15 -17 0 -10 3 -13 5 -6 6 14 -13 53 -25 53 -4 0 -11 -3 -14 -7z"/>
<path d="M8490 7014 c0 -19 27 -47 38 -40 7 4 12 12 12 17 0 6 -5 7 -12 3 -6
-4 -17 1 -25 11 -7 11 -13 14 -13 9z"/>
<path d="M11186 6957 c3 -10 9 -15 12 -12 3 3 0 11 -7 18 -10 9 -11 8 -5 -6z"/>
<path d="M11940 6930 c-8 -5 -11 -12 -7 -17 5 -4 12 -2 16 5 4 7 16 10 27 6
16 -5 16 -4 4 5 -18 13 -21 13 -40 1z"/>
<path d="M10574 6919 c-6 -10 11 -28 27 -29 15 0 17 29 3 34 -21 8 -22 8 -30
-5z"/>
<path d="M10625 6900 c-4 -6 4 -19 17 -30 20 -16 25 -17 38 -4 11 11 12 16 1
26 -10 11 -11 10 -6 -4 5 -13 2 -18 -9 -18 -9 0 -16 6 -16 14 0 19 -17 29 -25
16z"/>
<path d="M8081 6864 c-15 -34 -14 -36 9 -24 21 11 27 35 11 44 -4 3 -13 -6
-20 -20z"/>
<path d="M8413 6875 c0 -9 4 -14 9 -13 5 2 10 8 10 13 0 5 -5 11 -10 13 -5 1
-9 -4 -9 -13z"/>
<path d="M11961 6853 c5 -21 9 -42 9 -46 0 -4 10 -2 22 4 l21 12 -23 12 c-14
7 -19 15 -12 19 14 8 4 36 -13 36 -10 0 -11 -9 -4 -37z"/>
<path d="M8491 6865 c0 -18 27 -47 38 -40 6 3 11 11 11 16 0 6 -5 7 -11 4 -6
-4 -17 1 -24 11 -8 11 -14 15 -14 9z"/>
<path d="M10716 6862 c-10 -17 1 -27 35 -36 19 -4 29 -1 33 9 4 11 -1 13 -24
9 -22 -5 -29 -2 -32 12 -3 15 -5 16 -12 6z"/>
<path d="M10795 6820 c-3 -5 -1 -10 4 -10 6 0 11 5 11 10 0 6 -2 10 -4 10 -3
0 -8 -4 -11 -10z"/>
<path d="M10831 6816 c-9 -11 -8 -15 5 -20 23 -9 24 -8 24 14 0 23 -13 26 -29
6z"/>
<path d="M10880 6794 c0 -8 5 -12 10 -9 6 3 10 10 10 16 0 5 -4 9 -10 9 -5 0
-10 -7 -10 -16z"/>
<path d="M11297 6803 c-4 -3 -24 -6 -45 -5 -35 2 -39 -1 -50 -32 -11 -29 -10
-38 5 -65 16 -27 24 -31 60 -31 36 0 44 4 61 33 22 36 19 87 -5 87 -8 0 -11 5
-8 10 7 11 -8 14 -18 3z"/>
<path d="M10920 6785 c-12 -14 -6 -35 10 -35 5 0 7 7 3 16 -3 9 0 20 8 25 8 5
9 9 3 9 -6 0 -17 -7 -24 -15z"/>
<path d="M11988 6792 c-22 -4 -23 -16 -3 -32 11 -9 12 -17 4 -31 -6 -13 -6
-19 1 -19 5 0 10 6 10 14 0 8 5 16 12 18 19 7 -4 54 -24 50z"/>
<path d="M10966 6763 c-4 -9 -2 -21 4 -27 7 -7 10 -2 10 17 0 31 -5 34 -14 10z"/>
<path d="M10994 6748 c-5 -7 -2 -9 8 -5 11 4 18 -1 21 -14 6 -23 16 -24 43 -5
18 14 18 15 -9 25 -36 14 -54 14 -63 -1z"/>
<path d="M8416 6731 c-4 -7 -5 -15 -2 -18 9 -9 19 4 14 18 -4 11 -6 11 -12 0z"/>
<path d="M8493 6724 c-7 -19 20 -49 36 -40 17 11 13 27 -6 24 -12 -2 -18 3
-17 15 2 21 -5 22 -13 1z"/>
<path d="M11080 6725 c-12 -14 -6 -35 9 -35 12 0 21 39 11 45 -4 3 -13 -2 -20
-10z"/>
<path d="M8080 6710 c-8 -16 -8 -20 2 -18 23 5 39 38 18 38 -5 0 -14 -9 -20
-20z"/>
<path d="M11996 6684 c-9 -24 -8 -25 14 -12 23 15 26 28 6 28 -8 0 -17 -7 -20
-16z"/>
<path d="M12008 6624 c6 -34 39 -61 55 -45 9 9 7 13 -11 17 -22 6 -31 24 -12
24 20 0 9 18 -13 22 -20 4 -23 1 -19 -18z"/>
<path d="M8078 6579 c8 -22 24 -27 30 -10 2 5 -6 15 -17 21 -18 9 -20 8 -13
-11z"/>
<path d="M8410 6581 c0 -6 5 -13 10 -16 6 -3 10 1 10 9 0 9 -4 16 -10 16 -5 0
-10 -4 -10 -9z"/>
<path d="M8490 6571 c0 -17 28 -43 38 -37 18 11 14 20 -13 33 -14 6 -25 8 -25
4z"/>
<path d="M12030 6540 c0 -23 4 -24 32 -9 17 9 18 13 7 20 -23 15 -39 10 -39
-11z"/>
<path d="M8080 6426 c0 -8 5 -18 10 -21 6 -3 10 3 10 14 0 12 -4 21 -10 21 -5
0 -10 -6 -10 -14z"/>
<path d="M8155 6420 c3 -5 8 -10 11 -10 2 0 4 5 4 10 0 6 -5 10 -11 10 -5 0
-7 -4 -4 -10z"/>
<path d="M8490 6415 c0 -21 29 -40 42 -27 13 13 4 28 -22 35 -12 3 -20 0 -20
-8z"/>
<path d="M8150 6151 c-12 -24 -13 -31 -1 -31 5 0 11 11 13 25 6 30 2 32 -12 6z"/>
<path d="M8502 6148 c-15 -17 -18 -28 -12 -38 7 -10 10 -11 10 -2 0 6 5 12 11
12 6 0 9 -7 5 -15 -3 -9 0 -15 9 -15 9 0 12 6 8 17 -4 11 -3 14 5 9 15 -9 15
3 -1 32 l-13 23 -22 -23z"/>
<path d="M8416 6145 c-3 -10 -3 -22 3 -28 12 -12 20 4 11 27 -6 19 -7 19 -14
1z"/>
<path d="M8057 6135 c-5 -10 0 -15 14 -15 12 0 19 5 17 12 -6 18 -25 20 -31 3z"/>
<path d="M8027 6102 c1 -8 3 -15 3 -17 0 -4 71 12 77 19 3 3 -13 4 -36 3 -22
-2 -42 0 -44 3 -2 3 -2 -1 0 -8z"/>
<path d="M8605 6110 c-3 -5 -1 -10 4 -10 6 0 11 5 11 10 0 6 -2 10 -4 10 -3 0
-8 -4 -11 -10z"/>
<path d="M8555 6090 c3 -5 13 -10 21 -10 8 0 12 5 9 10 -3 6 -13 10 -21 10 -8
0 -12 -4 -9 -10z"/>
<path d="M7944 6075 c-24 -18 -10 -19 41 0 39 14 39 14 9 15 -16 0 -39 -7 -50
-15z"/>
<path d="M8415 6031 c-10 -10 9 -21 35 -21 22 0 28 4 24 15 -5 13 -48 18 -59
6z"/>
<path d="M8978 5963 c6 -2 18 -2 25 0 6 3 1 5 -13 5 -14 0 -19 -2 -12 -5z"/>
<path d="M9048 5943 c6 -2 18 -2 25 0 6 3 1 5 -13 5 -14 0 -19 -2 -12 -5z"/>
<path d="M9190 5904 c0 -7 42 -21 85 -27 33 -6 36 -5 16 4 -31 12 -101 28
-101 23z"/>
<path d="M9324 5862 c7 -11 114 -37 122 -29 3 2 -17 10 -43 16 -26 7 -56 14
-67 18 -11 3 -16 1 -12 -5z"/>
<path d="M8570 5816 c0 -8 61 -12 66 -4 3 4 -11 8 -30 8 -20 0 -36 -2 -36 -4z"/>
<path d="M8698 5813 c7 -3 16 -2 19 1 4 3 -2 6 -13 5 -11 0 -14 -3 -6 -6z"/>
<path d="M7900 5801 c-25 -4 -54 -12 -65 -19 -19 -12 -19 -13 3 -7 13 4 38 8
56 9 18 2 41 8 52 14 21 12 20 12 -46 3z"/>
<path d="M8668 5793 c6 -2 18 -2 25 0 6 3 1 5 -13 5 -14 0 -19 -2 -12 -5z"/>
<path d="M9560 5790 c14 -4 32 -8 40 -9 13 -1 13 0 0 9 -8 5 -26 9 -40 9 l-25
-1 25 -8z"/>
<path d="M7966 5781 c-3 -5 13 -9 37 -9 35 1 38 2 17 8 -35 11 -48 11 -54 1z"/>
<path d="M7680 5740 c0 -13 11 -13 30 0 12 8 11 10 -7 10 -13 0 -23 -4 -23
-10z"/>
<path d="M9742 5746 c9 -11 148 -45 148 -37 0 4 -27 13 -60 19 -34 7 -69 16
-78 19 -9 3 -14 3 -10 -1z"/>
<path d="M7335 5730 c-4 -6 6 -10 22 -10 22 0 25 2 13 10 -19 12 -27 12 -35 0z"/>
<path d="M7593 5723 c9 -2 23 -2 30 0 6 3 -1 5 -18 5 -16 0 -22 -2 -12 -5z"/>
<path d="M8543 5723 c9 -2 23 -2 30 0 6 3 -1 5 -18 5 -16 0 -22 -2 -12 -5z"/>
<path d="M7506 5708 c7 -11 51 -10 59 2 3 5 -9 9 -29 8 -19 -1 -33 -5 -30 -10z"/>
<path d="M7260 5682 c0 -5 13 -9 30 -9 16 0 27 4 24 9 -3 4 -16 8 -30 8 -13 0
-24 -4 -24 -8z"/>
<path d="M7478 5683 c12 -2 32 -2 45 0 12 2 2 4 -23 4 -25 0 -35 -2 -22 -4z"/>
<path d="M9433 5679 c14 -8 22 -8 30 0 8 8 3 11 -18 11 -26 -1 -28 -2 -12 -11z"/>
<path d="M7353 5669 c11 -7 23 -7 35 0 14 9 11 10 -18 10 -29 0 -32 -1 -17
-10z"/>
<path d="M9990 5670 c8 -5 20 -10 25 -10 6 0 3 5 -5 10 -8 5 -19 10 -25 10 -5
0 -3 -5 5 -10z"/>
<path d="M10070 5650 c8 -5 22 -10 30 -10 13 0 13 1 0 10 -8 5 -22 10 -30 10
-13 0 -13 -1 0 -10z"/>
<path d="M10128 5633 c6 -2 18 -2 25 0 6 3 1 5 -13 5 -14 0 -19 -2 -12 -5z"/>
<path d="M10180 5619 c0 -5 11 -9 25 -9 14 0 25 2 25 4 0 2 -11 6 -25 8 -14 3
-25 1 -25 -3z"/>
<path d="M8230 5130 c8 -5 20 -10 25 -10 6 0 3 5 -5 10 -8 5 -19 10 -25 10 -5
0 -3 -5 5 -10z"/>
<path d="M8240 5072 c12 -18 25 -31 28 -27 3 3 -7 18 -23 33 l-28 27 23 -33z"/>
<path d="M10063 4947 c1 -15 8 -29 15 -32 15 -6 15 4 -2 35 l-14 25 1 -28z"/>
<path d="M10060 4901 c0 -5 5 -13 10 -16 6 -3 10 -2 10 4 0 5 -4 13 -10 16 -5
3 -10 2 -10 -4z"/>
<path d="M9990 4886 c0 -9 5 -16 10 -16 6 0 10 4 10 9 0 6 -4 13 -10 16 -5 3
-10 -1 -10 -9z"/>
<path d="M10005 4850 c3 -5 8 -10 11 -10 2 0 4 5 4 10 0 6 -5 10 -11 10 -5 0
-7 -4 -4 -10z"/>
<path d="M9990 4834 c0 -5 7 -19 15 -30 8 -10 15 -14 15 -8 0 5 -7 19 -15 30
-8 10 -15 14 -15 8z"/>
<path d="M10067 4829 c7 -9 10 -19 6 -22 -3 -4 -1 -7 5 -7 17 0 15 16 -5 31
-16 12 -17 12 -6 -2z"/>
<path d="M8220 4811 c0 -11 29 -35 35 -29 2 2 -4 12 -15 21 -11 9 -20 13 -20
8z"/>
<path d="M9990 4784 c0 -13 18 -39 24 -34 2 3 -2 14 -10 24 -8 11 -14 16 -14
10z"/>
<path d="M10060 4783 c0 -5 4 -15 10 -23 11 -18 25 -7 17 15 -6 15 -27 21 -27
8z"/>
<path d="M8228 4723 c7 -3 16 -2 19 1 4 3 -2 6 -13 5 -11 0 -14 -3 -6 -6z"/>
<path d="M9990 4708 c0 -8 7 -21 15 -28 19 -16 19 -1 0 24 -12 16 -15 17 -15
4z"/>
<path d="M10080 4685 c0 -8 4 -15 10 -15 5 0 7 7 4 15 -4 8 -8 15 -10 15 -2 0
-4 -7 -4 -15z"/>
<path d="M6880 4670 l-85 -6 123 -2 c76 -1 122 2 122 8 0 10 -19 10 -160 0z"/>
<path d="M10070 4640 c0 -5 5 -10 10 -10 6 0 10 5 10 10 0 6 -4 10 -10 10 -5
0 -10 -4 -10 -10z"/>
<path d="M6120 4625 c0 -8 -21 -26 -47 -39 -67 -35 -37 -32 42 4 70 32 83 50
35 50 -20 0 -30 -5 -30 -15z m37 -1 c-3 -3 -12 -4 -19 -1 -8 3 -5 6 6 6 11 1
17 -2 13 -5z"/>
<path d="M10079 4577 c6 -8 8 -17 4 -20 -3 -4 -1 -7 5 -7 14 0 14 2 6 24 -3 9
-11 16 -16 16 -7 0 -6 -5 1 -13z"/>
<path d="M8000 4573 c-30 -3 -37 -9 -46 -39 -7 -20 -9 -77 -6 -137 2 -56 5
-140 5 -187 0 -92 4 -100 53 -100 38 0 62 36 45 67 -5 11 -8 23 -5 26 3 3 7
38 10 79 13 206 13 233 -2 266 -8 17 -16 31 -17 30 -1 -1 -18 -3 -37 -5z"/>
<path d="M8130 4561 c0 -11 -5 -23 -11 -27 -6 -3 -9 -20 -7 -36 3 -16 2 -31
-1 -33 -4 -2 -3 -43 0 -92 4 -48 6 -121 4 -162 -4 -77 9 -117 33 -102 17 10
21 48 27 274 l6 197 -26 0 c-18 0 -25 -5 -25 -19z"/>
<path d="M8297 4573 c-2 -5 -3 -100 -2 -213 1 -160 5 -211 16 -233 14 -26 16
-27 30 -11 10 12 14 45 15 113 0 53 4 139 8 193 4 64 3 98 -4 103 -5 3 -10 17
-10 31 0 19 -5 24 -24 24 -14 0 -27 -3 -29 -7z"/>
<path d="M8434 4563 c-3 -10 -10 -27 -15 -38 -10 -22 -5 -299 6 -326 3 -10 2
-20 -4 -24 -14 -8 -14 -45 -1 -45 6 0 10 -7 10 -15 0 -22 56 -20 66 3 4 9 9
55 10 102 1 47 5 133 8 192 4 67 2 109 -4 113 -6 3 -10 17 -10 31 0 20 -5 24
-30 24 -20 0 -33 -6 -36 -17z"/>
<path d="M9710 4558 c0 -10 -7 -21 -15 -24 -12 -5 -13 -25 -9 -112 2 -59 5
-142 7 -184 2 -83 15 -110 41 -89 18 15 16 139 -2 150 -6 4 -12 48 -13 109 -2
100 4 132 17 98 3 -9 10 -13 16 -10 5 3 3 16 -6 29 -14 22 -14 25 0 33 14 8
12 10 -10 14 -21 4 -26 1 -26 -14z"/>
<path d="M10000 4561 c0 -11 -4 -23 -10 -26 -5 -3 -10 -39 -10 -79 0 -65 2
-74 20 -79 13 -3 20 0 20 9 0 8 -4 14 -10 14 -5 0 -10 7 -10 16 0 14 2 15 17
3 15 -12 16 -12 9 6 -16 40 -18 55 -8 68 5 6 12 29 16 50 6 33 5 37 -14 37
-13 0 -20 -7 -20 -19z"/>
<path d="M10120 4549 c0 -19 4 -29 12 -27 16 6 17 58 1 58 -8 0 -13 -12 -13
-31z"/>
<path d="M6714 4526 c12 -26 25 -40 30 -35 6 5 3 16 -7 27 -9 10 -17 26 -17
35 0 9 -6 17 -14 17 -10 0 -8 -11 8 -44z"/>
<path d="M6770 4560 c0 -5 5 -10 11 -10 5 0 7 5 4 10 -3 6 -8 10 -11 10 -2 0
-4 -4 -4 -10z"/>
<path d="M6849 4552 c14 -27 14 -32 -1 -28 -7 1 -10 1 -5 -1 4 -3 7 -11 7 -18
0 -8 8 -19 18 -24 16 -10 16 -10 -2 -11 -17 0 -17 -6 -10 -72 5 -40 8 -112 8
-160 -1 -62 2 -88 11 -92 17 -6 28 23 15 39 -7 8 -7 21 -1 38 5 14 7 27 4 31
-3 3 0 49 7 102 8 68 9 99 1 107 -7 7 -7 15 -1 22 13 16 2 45 -17 45 -8 0 -13
8 -11 17 2 10 -5 19 -15 21 -16 3 -17 1 -8 -16z"/>
<path d="M6945 4553 c15 -37 17 -53 7 -53 -7 0 -10 -45 -7 -138 2 -76 5 -143
6 -148 2 -5 -1 -19 -5 -32 -10 -29 10 -58 29 -42 14 12 14 27 2 48 -5 6 -6 16
-3 21 6 9 15 114 20 233 3 55 0 72 -15 89 -11 12 -19 26 -19 31 0 4 -5 8 -11
8 -7 0 -8 -7 -4 -17z"/>
<path d="M7039 4552 c5 -10 6 -24 1 -32 -5 -8 -4 -22 1 -33 10 -18 6 -223 -5
-234 -2 -3 0 -16 5 -30 5 -14 6 -30 2 -36 -13 -21 -12 -39 2 -53 21 -22 30 1
32 86 0 41 4 128 8 193 5 102 4 117 -9 117 -9 0 -16 9 -16 20 0 11 -7 20 -15
20 -12 0 -13 -4 -6 -18z"/>
<path d="M7141 4554 c9 -11 10 -17 1 -23 -8 -5 -10 -63 -8 -201 4 -228 2 -206
22 -214 30 -11 41 16 41 104 0 47 3 131 6 187 6 83 4 105 -8 117 -8 8 -15 22
-15 30 0 11 -9 16 -26 16 -23 0 -25 -2 -13 -16z"/>
<path d="M7260 4555 c9 -11 9 -17 -3 -29 -11 -12 -13 -36 -10 -113 2 -54 5
-140 6 -192 2 -77 5 -96 19 -105 14 -8 22 -6 40 11 18 19 20 26 10 47 -6 13
-8 27 -4 31 4 4 8 26 9 48 1 23 5 94 8 158 5 99 3 118 -10 123 -8 3 -15 12
-15 21 0 10 -10 15 -31 15 -27 0 -30 -2 -19 -15z m37 -197 c-3 -7 -5 -2 -5 12
0 14 2 19 5 13 2 -7 2 -19 0 -25z"/>
<path d="M7396 4555 c3 -8 2 -19 -2 -26 -4 -6 -8 -91 -9 -188 -1 -97 -3 -182
-6 -189 -6 -20 24 -36 53 -29 23 6 24 10 26 88 2 84 -4 111 -19 88 -14 -24
-19 -4 -21 87 -1 62 3 97 13 114 l14 25 3 -32 c3 -35 16 -43 26 -17 9 24 7 54
-4 54 -5 0 -10 9 -10 20 0 16 -7 20 -35 20 -26 0 -33 -4 -29 -15z m46 -317
c-7 -7 -12 -8 -12 -2 0 14 12 26 19 19 2 -3 -1 -11 -7 -17z"/>
<path d="M7542 4558 c1 -7 -3 -23 -10 -36 -15 -26 -7 -62 14 -62 10 0 14 -13
14 -47 0 -64 -11 -124 -21 -118 -7 5 -17 -50 -18 -100 0 -11 -2 -31 -3 -44 -2
-19 3 -26 26 -32 49 -14 54 -1 51 125 -2 63 -6 132 -10 154 -5 30 -2 47 11 67
16 24 16 28 -2 65 -12 24 -26 40 -37 40 -10 0 -17 -6 -15 -12z"/>
<path d="M7666 4555 c4 -8 2 -21 -4 -28 -12 -14 -9 -387 2 -406 8 -13 55 -14
75 -2 10 6 11 17 6 37 -5 16 -7 34 -6 39 2 6 5 81 7 168 3 105 1 157 -6 157
-5 0 -10 11 -10 25 0 22 -4 25 -35 25 -27 0 -33 -3 -29 -15z m64 -105 c0 -5
-6 -10 -12 -11 -10 0 -10 -2 0 -6 6 -2 12 -14 12 -25 0 -16 -3 -18 -14 -9 -11
9 -15 9 -18 0 -7 -22 -28 1 -28 32 0 26 3 29 30 29 17 0 30 -4 30 -10z m-3
-102 c-3 -8 -6 -5 -6 6 -1 11 2 17 5 13 3 -3 4 -12 1 -19z m-27 -32 c0 -3 -4
-8 -10 -11 -5 -3 -10 -1 -10 4 0 6 5 11 10 11 6 0 10 -2 10 -4z"/>
<path d="M7803 4532 c-8 -26 -10 -85 -6 -188 3 -82 6 -167 7 -189 1 -34 5 -41
25 -43 12 -2 33 -1 46 2 21 5 22 10 22 98 0 51 2 141 6 200 5 88 4 107 -8 112
-8 3 -15 15 -15 26 0 16 -6 20 -33 20 -29 0 -33 -4 -44 -38z"/>
<path d="M8590 4556 c0 -8 -6 -21 -14 -29 -12 -11 -14 -50 -12 -203 2 -104 6
-197 11 -206 4 -10 15 -18 25 -18 18 0 47 28 45 45 0 6 -4 16 -8 23 -5 7 -6
20 -2 31 5 18 12 94 20 241 2 43 -1 80 -7 87 -6 7 -8 20 -4 28 4 11 -2 15 -24
15 -19 0 -30 -5 -30 -14z"/>
<path d="M8730 4550 c0 -10 -7 -23 -16 -28 -13 -7 -15 -28 -15 -118 0 -60 2
-136 4 -169 2 -33 -1 -68 -7 -77 -13 -22 18 -59 42 -51 28 10 52 35 45 46 -10
17 -12 129 -2 167 8 33 12 162 6 223 -2 22 -7 27 -29 27 -21 0 -28 -5 -28 -20z"/>
<path d="M8860 4552 c0 -10 5 -23 12 -30 16 -16 17 -154 2 -159 -8 -2 -15 15
-19 47 -4 27 -11 50 -17 50 -9 0 -2 -226 8 -258 2 -7 -2 -21 -8 -32 -10 -15
-9 -23 6 -39 24 -26 38 -26 61 -1 15 16 16 25 7 44 -6 13 -8 27 -4 30 3 4 7
33 7 64 1 31 5 72 9 91 6 24 5 31 -3 27 -13 -8 -15 92 -3 112 5 7 7 26 4 42
-4 25 -9 30 -33 30 -21 0 -29 -5 -29 -18z"/>
<path d="M9000 4554 c0 -8 -6 -22 -14 -30 -19 -18 -18 -382 1 -401 16 -18 27
-16 48 7 15 16 16 25 7 44 -6 13 -8 27 -4 31 4 3 7 30 7 58 1 29 5 85 9 125 5
45 5 72 -1 72 -5 0 -10 -8 -10 -17 1 -73 -3 -83 -28 -83 -24 0 -25 2 -25 63 0
34 3 72 6 85 7 24 34 31 34 8 0 -7 7 -19 15 -26 13 -10 15 -9 15 8 0 12 -5 24
-10 27 -6 4 -8 15 -5 26 5 15 1 19 -19 19 -17 0 -26 -6 -26 -16z"/>
<path d="M9128 4553 c-3 -10 -2 -55 0 -100 4 -67 2 -84 -10 -88 -12 -5 -15
-23 -14 -80 1 -41 5 -77 8 -81 4 -4 3 -15 -3 -26 -14 -26 -2 -58 22 -58 37 0
45 21 47 124 1 54 5 102 8 107 3 5 -2 9 -10 9 -10 0 -16 9 -16 25 0 16 6 25
15 25 20 0 19 30 -2 45 -16 12 -16 16 -1 64 l16 51 -28 0 c-19 0 -30 -6 -32
-17z"/>
<path d="M9260 4550 c0 -11 -4 -20 -9 -20 -18 0 -21 -33 -6 -64 14 -28 14 -32
0 -42 -13 -10 -14 -27 -7 -120 6 -73 5 -115 -2 -126 -8 -14 -6 -23 11 -40 21
-21 23 -21 42 -4 12 11 18 26 14 39 -2 12 -4 27 -4 32 0 6 2 90 5 188 l5 177
-25 0 c-17 0 -24 -5 -24 -20z m20 -110 c0 -11 -2 -20 -4 -20 -2 0 -6 9 -9 20
-3 11 -1 20 4 20 5 0 9 -9 9 -20z"/>
<path d="M9380 4556 c0 -7 -7 -19 -15 -26 -8 -7 -12 -17 -9 -22 4 -6 7 -88 8
-183 1 -132 4 -176 15 -189 13 -15 16 -15 30 -2 19 20 23 206 5 206 -20 0 -34
146 -15 166 4 5 11 21 15 37 5 23 3 27 -14 27 -11 0 -20 -6 -20 -14z"/>
<path d="M9500 4550 c0 -11 -4 -20 -10 -20 -5 0 -10 -13 -10 -30 0 -20 5 -30
15 -30 8 0 15 -9 15 -20 0 -11 -4 -20 -9 -20 -14 0 -21 -43 -9 -57 7 -9 7 -13
-1 -13 -6 0 -11 -12 -11 -26 0 -19 4 -25 15 -20 8 3 15 1 15 -3 0 -5 -5 -11
-12 -13 -18 -6 -20 -144 -3 -158 11 -9 18 -9 30 3 17 18 20 43 5 52 -6 4 -8
11 -4 17 12 19 16 316 4 323 -8 5 -8 11 1 21 9 11 7 14 -10 14 -14 0 -21 -6
-21 -20z"/>
<path d="M9610 4556 c0 -7 -7 -19 -15 -26 -12 -10 -14 -32 -9 -119 3 -58 6
-142 7 -186 2 -73 4 -80 22 -80 18 0 20 7 21 85 1 47 3 131 4 188 1 62 -2 108
-9 115 -7 10 -7 17 1 25 9 9 8 12 -5 12 -9 0 -17 -6 -17 -14z m8 -107 c-3 -20
-5 -19 -9 9 -3 20 -2 29 4 23 5 -5 7 -19 5 -32z"/>
<path d="M9820 4551 c0 -10 -6 -21 -14 -24 -10 -4 -12 -17 -6 -54 4 -26 6
-108 5 -181 -2 -75 1 -135 6 -138 19 -11 38 16 30 44 -4 15 -6 60 -5 99 2 40
-1 75 -7 78 -11 8 -12 142 0 147 4 2 12 13 15 26 6 16 3 22 -8 22 -9 0 -16 -8
-16 -19z"/>
<path d="M9920 4560 c0 -5 5 -10 10 -10 6 0 10 5 10 10 0 6 -4 10 -10 10 -5 0
-10 -4 -10 -10z"/>
<path d="M10200 4559 c0 -5 5 -7 10 -4 6 3 10 8 10 11 0 2 -4 4 -10 4 -5 0
-10 -5 -10 -11z"/>
<path d="M10270 4559 c0 -5 5 -7 10 -4 6 3 10 8 10 11 0 2 -4 4 -10 4 -5 0
-10 -5 -10 -11z"/>
<path d="M6645 4550 c-72 -22 -101 -42 -117 -80 -15 -35 -15 -40 -1 -40 11 0
14 -7 10 -22 -3 -13 -9 -41 -13 -63 -7 -37 -8 -38 -15 -15 -4 14 -8 45 -9 70
-1 34 -3 40 -9 25 -9 -20 -7 -283 2 -291 2 -3 25 -5 51 -6 70 -1 59 -18 -11
-18 -13 0 -23 -5 -23 -11 0 -5 -4 -8 -9 -5 -20 13 -21 -28 -1 -46 11 -10 20
-27 20 -37 0 -14 6 -17 26 -13 22 4 24 8 19 33 -4 19 -3 29 5 29 6 0 10 7 8
16 -2 11 5 18 19 19 13 1 26 4 29 8 3 3 8 80 11 171 5 130 3 166 -7 166 -10 0
-10 3 0 15 9 10 9 15 1 15 -15 0 -14 27 1 36 8 5 9 2 5 -9 -3 -10 -2 -17 3
-17 8 0 35 69 28 74 -1 2 -12 0 -23 -4z m-51 -49 c7 -11 -3 -41 -14 -41 -11 0
-21 30 -14 41 3 5 9 9 14 9 5 0 11 -4 14 -9z m-4 -94 c0 -7 -7 -22 -15 -33
-14 -18 -14 -17 -15 14 0 22 5 32 15 32 8 0 15 -6 15 -13z"/>
<path d="M6170 4523 l-35 -17 28 -4 c39 -5 33 -22 -8 -22 -19 0 -35 5 -35 10
0 6 -7 10 -15 10 -8 0 -15 -8 -15 -18 0 -10 -9 -25 -20 -35 -11 -9 -20 -21
-20 -26 0 -17 20 -23 34 -12 7 6 40 22 71 35 32 13 59 30 61 39 1 8 5 24 9 36
8 26 -6 27 -55 4z"/>
<path d="M9890 4531 c0 -6 7 -11 15 -11 7 0 19 -8 25 -17 9 -16 10 -15 8 7 -2
17 -10 26 -25 28 -13 2 -23 -1 -23 -7z"/>
<path d="M10070 4526 c0 -19 17 -29 25 -16 3 5 0 10 -7 10 -9 0 -9 3 2 10 13
8 12 10 -2 10 -10 0 -18 -6 -18 -14z"/>
<path d="M10170 4531 c0 -5 8 -12 17 -15 12 -5 13 -10 5 -18 -8 -8 -8 -15 -1
-25 6 -7 9 -33 7 -58 -2 -25 1 -45 5 -45 8 0 9 122 0 153 -4 17 -33 25 -33 8z"/>
<path d="M10246 4531 c-7 -11 0 -170 8 -178 5 -5 10 59 9 130 0 9 3 17 7 17 3
0 6 9 6 20 0 20 -20 28 -30 11z"/>
<path d="M10307 4527 c-5 -14 2 -149 9 -156 2 -2 4 18 5 45 2 92 4 109 14 116
6 5 3 8 -6 8 -9 0 -19 -6 -22 -13z"/>
<path d="M10353 4524 c-3 -8 -1 -20 6 -27 8 -8 11 -4 11 16 0 30 -7 35 -17 11z"/>
<path d="M10428 4517 c3 -12 7 -15 12 -7 4 6 11 10 16 9 19 -3 44 1 44 9 0 4
-17 8 -39 8 -33 0 -37 -2 -33 -19z"/>
<path d="M6783 4373 c2 -97 7 -156 12 -153 6 3 9 16 9 30 -1 14 3 58 8 98 8
51 7 76 -1 85 -7 9 -8 24 -2 43 10 35 4 54 -15 54 -11 0 -13 -29 -11 -157z"/>
<path d="M8230 4522 c0 -12 19 -26 26 -19 2 2 -2 10 -11 17 -9 8 -15 8 -15 2z"/>
<path d="M10396 4521 c-4 -7 -5 -15 -2 -18 9 -9 19 4 14 18 -4 11 -6 11 -12 0z"/>
<path d="M8830 4501 c0 -6 5 -13 10 -16 6 -3 10 1 10 9 0 9 -4 16 -10 16 -5 0
-10 -4 -10 -9z"/>
<path d="M9742 4460 c0 -14 2 -19 5 -12 2 6 2 18 0 25 -3 6 -5 1 -5 -13z"/>
<path d="M9934 4395 c0 -49 1 -71 3 -48 2 23 2 64 0 90 -2 26 -3 8 -3 -42z"/>
<path d="M10350 4433 c0 -35 3 -44 10 -33 13 20 13 80 0 80 -5 0 -10 -21 -10
-47z"/>
<path d="M10397 4473 c-11 -10 -8 -65 3 -58 6 4 11 65 4 65 0 0 -4 -3 -7 -7z"/>
<path d="M5940 4432 c-65 -27 -65 -27 -67 -70 -1 -23 1 -42 5 -42 4 0 37 14
73 31 64 31 100 73 84 99 -9 14 -22 12 -95 -18z"/>
<path d="M6385 4432 c-81 -36 -85 -40 -85 -67 0 -13 -4 -27 -10 -30 -6 -3 -10
-52 -10 -112 l0 -106 70 5 c39 3 73 8 76 10 7 8 17 123 17 211 0 61 3 77 14
73 11 -5 11 -1 2 17 -6 12 -12 23 -13 24 -1 1 -28 -10 -61 -25z m27 -72 c-3
-21 -8 -28 -15 -21 -11 11 -1 64 12 57 4 -3 6 -19 3 -36z"/>
<path d="M8228 4443 c7 -3 16 -2 19 1 4 3 -2 6 -13 5 -11 0 -14 -3 -6 -6z"/>
<path d="M7526 4415 c-9 -26 -7 -32 5 -12 6 10 9 21 6 23 -2 3 -7 -2 -11 -11z"/>
<path d="M7602 4400 c0 -19 2 -27 5 -17 2 9 2 25 0 35 -3 9 -5 1 -5 -18z"/>
<path d="M9743 4375 c0 -33 2 -45 4 -27 2 18 2 45 0 60 -2 15 -4 0 -4 -33z"/>
<path d="M8216 4395 c4 -8 11 -15 16 -15 6 0 5 6 -2 15 -7 8 -14 15 -16 15 -2
0 -1 -7 2 -15z"/>
<path d="M5718 4343 c-45 -20 -58 -31 -58 -47 0 -39 -63 -58 -72 -21 -2 9 -20
6 -70 -13 -60 -24 -67 -30 -73 -59 -3 -19 -12 -33 -20 -33 -21 0 -19 -38 3
-43 32 -9 85 1 95 18 5 9 28 25 50 35 39 17 40 19 19 26 l-23 7 23 12 c13 6
27 8 33 3 16 -14 42 -9 119 26 62 28 74 38 69 54 -3 14 1 21 16 25 12 3 21 13
20 24 0 17 -1 17 -8 -1 -7 -18 -8 -18 -14 -3 -9 23 -42 20 -109 -10z"/>
<path d="M6153 4322 c-52 -25 -73 -41 -73 -54 0 -10 -6 -21 -13 -24 -8 -3 -14
-19 -15 -36 0 -17 -7 -35 -14 -39 -11 -7 -11 -9 0 -9 9 0 11 -7 7 -21 -4 -12
0 -38 11 -61 15 -33 16 -41 4 -48 -12 -7 -11 -12 3 -28 9 -10 17 -27 16 -38
-1 -14 -3 -13 -8 6 l-7 25 -13 -24 c-15 -27 -3 -45 25 -39 12 2 23 18 30 43
10 38 12 40 56 43 50 3 67 21 39 41 -14 10 -16 22 -11 62 l6 49 -38 -2 c-21
-1 -38 -5 -38 -10 0 -4 -4 -8 -10 -8 -5 0 -6 8 -3 18 6 15 5 15 -10 3 -22 -17
-24 4 -2 25 14 15 60 11 70 -7 3 -4 12 -6 21 -2 11 4 14 18 13 52 -1 26 1 52
4 58 4 7 -1 13 -10 16 -17 4 -17 5 1 12 13 6 23 3 31 -8 15 -21 22 -21 22 -2
0 8 -5 15 -10 15 -5 0 -7 7 -3 15 7 19 4 19 -81 -23z m-16 -48 c-3 -3 -12 -4
-19 -1 -8 3 -5 6 6 6 11 1 17 -2 13 -5z m36 -31 c-7 -2 -21 -2 -30 0 -10 3 -4
5 12 5 17 0 24 -2 18 -5z m-43 -120 c0 -5 -7 -26 -14 -48 l-14 -40 1 47 c1 31
6 48 15 48 6 0 12 -3 12 -7z"/>
<path d="M7462 4340 c0 -14 2 -19 5 -12 2 6 2 18 0 25 -3 6 -5 1 -5 -13z"/>
<path d="M10000 4337 c0 -2 7 -18 15 -33 13 -25 15 -26 15 -8 0 12 -7 27 -15
34 -8 7 -15 10 -15 7z"/>
<path d="M10080 4333 c0 -15 19 -37 26 -31 3 4 -1 14 -10 23 -9 9 -16 13 -16
8z"/>
<path d="M10255 4280 c-3 -5 -1 -10 4 -10 6 0 11 5 11 10 0 6 -2 10 -4 10 -3
0 -8 -4 -11 -10z"/>
<path d="M8211 4275 c-1 -14 37 -61 43 -54 3 2 -6 18 -19 34 -13 17 -24 26
-24 20z"/>
<path d="M10005 4260 c3 -5 11 -10 16 -10 6 0 7 5 4 10 -3 6 -11 10 -16 10 -6
0 -7 -4 -4 -10z"/>
<path d="M10080 4259 c0 -5 5 -7 10 -4 6 3 10 8 10 11 0 2 -4 4 -10 4 -5 0
-10 -5 -10 -11z"/>
<path d="M5980 4236 c0 -8 6 -17 13 -19 10 -4 10 -6 0 -6 -18 -1 -16 -21 1
-21 16 0 31 34 21 50 -9 15 -35 12 -35 -4z"/>
<path d="M9902 4233 c1 -5 -2 -19 -6 -32 -6 -16 -3 -28 8 -39 15 -15 17 -15
32 0 11 11 14 23 8 39 -4 13 -7 27 -6 32 1 4 -7 7 -18 7 -11 0 -19 -3 -18 -7z"/>
<path d="M10186 4223 c-12 -12 -6 -43 9 -43 8 0 15 9 15 19 0 21 -13 34 -24
24z"/>
<path d="M10250 4205 c0 -8 5 -15 10 -15 6 0 10 7 10 15 0 8 -4 15 -10 15 -5
0 -10 -7 -10 -15z"/>
<path d="M6780 4181 c0 -12 0 -24 0 -28 0 -5 6 -8 13 -8 6 0 12 11 12 24 0 13
-6 26 -12 29 -8 2 -13 -5 -13 -17z"/>
<path d="M9990 4183 c0 -11 3 -14 8 -7 4 6 14 14 22 17 10 4 8 6 -7 6 -16 1
-23 -5 -23 -16z"/>
<path d="M5957 4183 c-3 -3 -3 -11 0 -19 6 -16 31 -18 51 -5 10 6 6 11 -16 19
-17 6 -33 8 -35 5z"/>
<path d="M5765 4149 c-4 -6 -5 -13 -2 -16 7 -7 27 6 27 18 0 12 -17 12 -25 -2z"/>
<path d="M5782 4116 c1 -10 8 -17 13 -17 15 1 12 24 -3 29 -9 3 -13 -2 -10
-12z"/>
<path d="M10496 4113 c-16 -8 -45 -16 -65 -18 -20 -1 -64 -6 -98 -10 l-63 -8
0 -177 c0 -97 3 -199 7 -225 l6 -47 45 6 c24 3 62 11 83 18 38 11 39 12 41 62
l1 51 4 -43 c4 -36 7 -42 21 -37 9 4 26 10 37 13 11 3 23 10 27 16 9 13 -2
398 -11 408 -3 3 -19 0 -35 -9z m-35 -123 c14 0 11 -30 -3 -31 -10 0 -10 -2 0
-6 17 -6 16 -53 -2 -53 -10 0 -13 20 -13 88 0 48 2 68 4 45 2 -24 8 -43 14
-43z m-86 0 c3 -5 1 -10 -4 -10 -6 0 -11 5 -11 10 0 6 2 10 4 10 3 0 8 -4 11
-10z m44 -195 c1 -17 -1 -17 -9 -5 -5 8 -9 26 -9 40 0 23 1 23 9 5 5 -11 9
-29 9 -40z"/>
<path d="M5830 4105 c-10 -12 -10 -15 4 -15 9 0 16 7 16 15 0 8 -2 15 -4 15
-2 0 -9 -7 -16 -15z"/>
<path d="M6281 4078 c-12 -35 -5 -58 19 -58 10 0 25 -3 34 -6 11 -4 16 0 16
13 0 16 -5 19 -30 15 -28 -4 -41 10 -21 22 5 3 11 14 13 24 8 31 -20 22 -31
-10z"/>
<path d="M6350 4100 c0 -5 -8 -10 -17 -10 -12 0 -14 -3 -6 -11 8 -8 16 -8 30
0 10 6 14 11 8 11 -5 0 -3 5 5 10 13 8 12 10 -2 10 -10 0 -18 -4 -18 -10z"/>
<path d="M6408 4071 c-4 -24 -2 -27 12 -19 20 13 24 48 6 48 -8 0 -16 -13 -18
-29z"/>
<path d="M5973 4050 c-5 -17 -14 -20 -58 -20 -32 0 -55 5 -57 12 -6 17 -28 0
-28 -21 0 -10 7 -24 15 -31 20 -17 19 -40 -2 -56 -15 -12 -7 -13 57 -8 41 3
77 8 80 10 2 3 5 29 5 57 1 29 4 58 9 65 4 7 2 12 -4 12 -7 0 -14 -9 -17 -20z"/>
<path d="M5628 4026 c-2 -19 0 -45 5 -58 5 -14 4 -24 -2 -26 -18 -6 -13 -37
10 -60 11 -12 17 -27 14 -32 -4 -6 15 -10 48 -10 l53 0 19 103 c10 56 23 105
29 109 6 5 2 8 -11 8 -12 0 -25 -4 -28 -10 -3 -5 -18 -9 -33 -9 l-27 1 30 8
c23 6 15 8 -36 9 l-67 1 -4 -34z"/>
<path d="M9930 4053 c-65 -5 -73 -9 -61 -32 15 -27 -12 -50 -35 -30 -13 10
-17 10 -24 -1 -7 -12 -10 -11 -16 3 -3 9 -4 24 0 32 4 12 -3 15 -30 15 -26 0
-41 -7 -59 -27 -19 -21 -24 -24 -25 -11 0 9 6 19 13 21 6 3 -3 6 -20 6 -18 1
-36 1 -40 1 -5 1 -10 -10 -11 -22 -2 -13 -9 -30 -15 -38 -6 -8 -7 -12 -3 -8 5
4 15 3 23 -3 10 -9 17 -8 30 2 15 12 16 12 10 -3 -4 -11 1 -22 14 -32 26 -17
19 -64 -11 -86 -26 -19 -25 -30 1 -30 11 0 28 -8 37 -17 16 -16 17 -16 20 0 2
9 10 17 17 17 8 0 19 9 25 21 11 20 37 21 33 0 -2 -6 2 -11 8 -11 6 0 9 7 5
15 -4 11 1 15 17 15 13 0 29 6 36 13 10 10 12 -8 10 -91 -1 -56 1 -105 4 -108
3 -3 3 -23 0 -45 -6 -38 -5 -40 18 -35 13 3 66 11 118 17 89 12 94 14 105 41
11 24 15 27 25 15 9 -12 8 -16 -5 -21 -26 -10 -10 -18 21 -10 19 5 23 9 14 15
-8 5 -12 24 -11 51 2 25 -2 55 -7 69 -5 13 -10 19 -10 12 -1 -6 -9 -14 -18
-16 -13 -3 -12 -5 5 -6 13 0 20 -5 17 -11 -4 -6 -14 -9 -22 -8 -12 2 -17 -8
-20 -47 -6 -60 -10 -66 -29 -40 -8 11 -22 19 -30 17 -16 -3 -19 30 -5 56 6 12
5 26 -5 42 -7 14 -13 20 -14 13 0 -7 -6 -10 -14 -7 -8 3 -19 -3 -26 -16 -9
-17 -17 -20 -41 -15 -18 4 -29 3 -29 -5 0 -8 -4 -7 -13 1 -13 13 -11 156 3
174 4 6 7 29 6 52 0 22 2 39 7 36 4 -2 7 -24 7 -49 0 -24 5 -44 10 -44 7 0 8
-13 4 -34 l-6 -34 36 8 c23 5 37 4 41 -4 3 -6 3 1 0 16 -7 34 5 108 16 108 5
0 9 -9 9 -20 0 -28 20 -25 21 3 2 45 19 -48 20 -110 0 -35 5 -65 10 -69 13 -7
11 156 -2 233 l-11 63 -52 -2 c-28 -1 -71 -3 -96 -5z m-260 -59 c0 -8 -4 -12
-10 -9 -5 3 -10 10 -10 16 0 5 5 9 10 9 6 0 10 -7 10 -16z m230 -44 c0 -13 -1
-13 -10 0 -5 8 -12 11 -16 7 -4 -4 -2 -13 4 -19 17 -17 15 -33 -3 -18 -18 15
-19 36 -2 54 13 15 27 3 27 -24z m-50 9 c0 -5 -4 -9 -10 -9 -5 0 -10 7 -10 16
0 8 5 12 10 9 6 -3 10 -10 10 -16z m160 11 c0 -5 -7 -10 -15 -10 -8 0 -15 5
-15 10 0 6 7 10 15 10 8 0 15 -4 15 -10z m-150 -70 c0 -5 -4 -10 -10 -10 -5 0
-10 5 -10 10 0 6 5 10 10 10 6 0 10 -4 10 -10z m200 -270 c0 -5 -2 -10 -4 -10
-3 0 -8 5 -11 10 -3 6 -1 10 4 10 6 0 11 -4 11 -10z"/>
<path d="M10190 4028 c0 -18 -1 -70 -2 -115 -2 -46 -1 -83 2 -83 36 1 48 14
44 48 -11 114 -12 152 -3 147 5 -4 9 3 9 14 0 16 -6 21 -25 21 -21 0 -24 -5
-25 -32z m30 -114 c0 -36 -3 -63 -7 -61 -8 5 -5 127 3 127 2 0 4 -30 4 -66z"/>
<path d="M10130 4046 c0 -2 7 -7 16 -10 8 -3 12 -2 9 4 -6 10 -25 14 -25 6z"/>
<path d="M6380 4015 c0 -8 5 -15 10 -15 6 0 10 7 10 15 0 8 -4 15 -10 15 -5 0
-10 -7 -10 -15z"/>
<path d="M10132 4003 c-13 -26 -4 -47 14 -32 8 6 14 17 14 25 0 21 -18 26 -28
7z"/>
<path d="M6150 3990 c0 -5 5 -10 11 -10 5 0 7 5 4 10 -3 6 -8 10 -11 10 -2 0
-4 -4 -4 -10z"/>
<path d="M6312 3991 c-9 -5 -16 -46 -13 -78 1 -7 12 -13 25 -13 20 0 25 7 33
49 9 46 9 49 -13 49 -12 0 -26 -3 -32 -7z"/>
<path d="M8044 3988 c-3 -4 4 -8 14 -8 11 0 22 -7 26 -15 3 -8 12 -12 20 -9
12 5 15 -3 13 -35 -2 -47 -11 -53 -23 -13 -6 23 -8 24 -12 7 -7 -31 -21 -43
-42 -38 -19 5 -20 0 -19 -146 0 -137 9 -188 25 -147 3 9 10 13 15 10 5 -2 17
-1 27 5 10 5 24 6 31 1 16 -9 -1 -20 -62 -40 -35 -11 -38 -15 -35 -43 l3 -31
185 3 c101 1 187 4 191 7 4 2 79 4 168 5 99 0 161 4 161 10 0 6 -5 19 -10 29
-8 16 -21 19 -66 19 -36 -1 -59 4 -64 12 -7 10 -11 10 -24 -1 -22 -17 -29 -8
-17 21 5 13 10 18 10 10 1 -8 7 -11 19 -6 9 3 39 8 65 10 47 3 79 15 41 15
-15 0 -16 2 -5 9 18 11 53 -9 46 -26 -3 -9 7 -13 31 -13 l35 0 -18 -32 c-10
-18 -22 -37 -28 -41 -5 -5 78 -6 185 -2 201 6 342 15 349 21 2 2 -2 10 -8 18
-7 8 -9 21 -5 27 5 9 1 10 -14 7 -20 -6 -27 2 -23 25 1 5 -3 6 -9 2 -5 -3 -10
-15 -10 -25 0 -27 -21 -36 -36 -15 -10 13 -21 16 -44 11 -21 -4 -40 0 -58 12
-17 11 -23 12 -18 3 7 -10 4 -12 -13 -6 -12 4 -28 2 -36 -5 -11 -9 -18 -7 -35
10 -12 12 -27 19 -35 17 -8 -4 -11 1 -8 12 6 24 123 45 123 22 0 -9 3 -11 9
-5 10 10 2 124 -8 124 -3 0 -5 -19 -3 -43 3 -40 2 -43 -22 -43 -14 0 -26 4
-26 8 0 4 9 8 19 8 16 0 18 5 14 40 -4 31 -2 41 11 46 23 9 27 3 31 -51 4 -54
10 -64 27 -47 18 18 27 14 23 -9 -6 -29 15 -69 36 -69 10 0 36 9 58 21 22 11
45 18 50 15 6 -4 9 48 8 141 -2 136 -4 148 -21 151 -22 5 -38 -16 -30 -39 3
-10 -3 -19 -13 -23 -10 -3 -25 -9 -33 -12 -8 -3 -5 1 8 11 12 9 19 21 16 27
-4 6 -10 5 -15 -3 -8 -12 -11 -11 -19 1 -8 13 -10 13 -10 -2 0 -28 -48 -43
-77 -25 -7 5 -13 4 -13 -1 0 -4 -27 -8 -60 -8 -33 1 -60 4 -60 9 0 15 -39 6
-52 -12 -8 -11 -31 -22 -53 -25 l-40 -6 33 12 c17 6 32 15 32 20 0 5 -10 6
-22 2 -13 -4 -31 -7 -41 -6 -13 1 -17 -4 -13 -14 4 -10 2 -13 -7 -7 -15 9 -59
5 -71 -8 -16 -15 -26 -10 -27 14 -1 18 -3 16 -8 -7 -6 -30 -45 -54 -57 -35 -3
6 4 13 16 16 14 4 18 8 10 13 -7 4 -21 5 -31 3 -14 -4 -18 -12 -13 -32 l5 -26
-16 28 c-16 28 -30 34 -40 17 -4 -7 -13 -7 -26 0 -14 8 -20 8 -23 -2 -13 -42
-14 -43 -15 -27 -2 31 -101 31 -101 1 0 -14 -2 -14 -9 -3 -8 12 -14 12 -40 1
-17 -7 -31 -16 -31 -20 0 -13 39 -19 44 -6 2 6 5 -2 5 -18 1 -21 -3 -27 -14
-23 -8 4 -17 1 -21 -4 -4 -7 14 -9 54 -6 33 2 66 0 74 -4 9 -6 5 -9 -14 -9
-14 0 -29 -6 -31 -12 -4 -10 -6 -10 -6 0 -1 6 -8 12 -16 12 -8 0 -15 -6 -15
-12 0 -10 -2 -10 -8 -1 -4 6 -23 11 -44 11 -27 0 -37 -5 -41 -19 -3 -10 -12
-19 -21 -19 -12 0 -16 10 -16 45 0 25 -3 44 -7 44 -19 -3 -33 2 -33 11 0 6 7
10 15 10 8 0 15 4 15 8 0 16 -45 8 -62 -11 -9 -10 -25 -17 -35 -14 -16 4 -15
6 5 12 12 4 22 15 22 25 0 10 5 21 10 23 6 3 5 4 -2 3 -7 -1 -21 7 -30 20 -15
18 -16 27 -7 53 10 29 12 30 25 14 12 -17 13 -17 14 -1 0 9 7 21 17 26 14 9
13 13 -11 38 -22 24 -34 29 -77 29 -28 1 -53 -3 -55 -7z m900 -137 c3 -5 -1
-11 -9 -14 -9 -4 -12 -1 -8 9 6 16 10 17 17 5z m96 5 c0 -3 -4 -8 -10 -11 -5
-3 -10 -1 -10 4 0 6 5 11 10 11 6 0 10 -2 10 -4z m-256 -55 c-2 -3 -17 -7 -32
-9 -15 -2 -28 -7 -30 -13 -2 -5 -10 -9 -18 -9 -8 0 -14 -5 -14 -11 0 -5 -5 -7
-12 -3 -9 6 -9 9 0 12 7 2 12 11 12 21 0 14 9 17 50 17 27 0 47 -2 44 -5z
m-304 -15 c0 -9 -7 -12 -20 -9 -13 4 -26 -1 -34 -12 -7 -9 -21 -15 -32 -13
-15 3 -12 7 16 20 29 13 48 21 68 27 1 1 2 -5 2 -13z m130 -26 c0 -5 -7 -7
-15 -4 -8 4 -15 1 -15 -6 0 -6 -5 -8 -11 -4 -7 4 -10 -1 -7 -12 3 -19 48 -34
48 -16 0 19 37 19 49 0 11 -17 24 -19 145 -17 80 0 142 -3 153 -10 14 -8 -1
-11 -64 -12 -46 -1 -110 -2 -143 -3 -34 0 -60 3 -60 9 0 6 -3 6 -8 0 -9 -14
-52 -17 -52 -3 0 7 -5 6 -15 -2 -16 -13 -76 -4 -87 14 -6 8 -8 7 -8 -1 0 -7
-12 -13 -27 -13 -25 0 -28 3 -26 32 2 50 2 50 12 43 5 -3 12 -2 15 3 7 12 116
14 116 2z m606 -95 c-36 -19 -42 -19 -26 0 7 8 22 15 34 15 18 0 17 -2 -8 -15z
m-680 -62 c-7 -7 -26 7 -26 19 0 6 6 6 15 -2 9 -7 13 -15 11 -17z"/>
<path d="M8512 3724 c-11 -12 -9 -14 7 -14 11 0 21 -5 23 -12 3 -8 7 -6 11 5
9 23 -23 40 -41 21z"/>
<path d="M8300 3989 c0 -6 7 -9 15 -5 8 3 15 1 15 -4 0 -6 5 -10 11 -10 5 0 7
6 3 13 -5 8 -2 8 9 -2 19 -15 23 -41 7 -41 -5 0 -10 -4 -10 -9 0 -6 9 -9 20
-8 11 1 20 7 20 14 0 6 8 17 18 22 11 7 12 10 3 11 -7 0 -11 6 -7 15 4 12 -5
15 -49 15 -34 0 -55 -4 -55 -11z"/>
<path d="M8425 3990 c3 -5 8 -10 11 -10 2 0 4 5 4 10 0 6 -5 10 -11 10 -5 0
-7 -4 -4 -10z"/>
<path d="M9382 3955 c-13 -28 -7 -51 15 -59 11 -5 13 -2 9 10 -4 10 0 18 13
21 28 7 34 31 11 43 -28 15 -36 13 -48 -15z"/>
<path d="M8310 3950 c0 -5 5 -10 11 -10 5 0 7 5 4 10 -3 6 -8 10 -11 10 -2 0
-4 -4 -4 -10z"/>
<path d="M9606 3934 c-3 -12 -2 -32 3 -45 7 -17 10 -19 10 -6 1 10 9 17 22 17
12 0 19 5 17 13 -3 6 -11 12 -19 12 -8 0 -17 7 -20 15 -5 12 -7 10 -13 -6z"/>
<path d="M6115 3930 c-3 -5 -1 -10 4 -10 6 0 11 5 11 10 0 6 -2 10 -4 10 -3 0
-8 -4 -11 -10z"/>
<path d="M9450 3930 c0 -13 11 -13 30 0 12 8 11 10 -7 10 -13 0 -23 -4 -23
-10z"/>
<path d="M6158 3923 c7 -3 16 -2 19 1 4 3 -2 6 -13 5 -11 0 -14 -3 -6 -6z"/>
<path d="M5830 3881 c0 -16 -3 -36 -6 -45 -5 -13 3 -16 42 -17 42 -1 45 -2 19
-9 l-30 -7 30 -5 c23 -5 21 -6 -12 -4 -23 1 -39 -2 -37 -5 2 -4 -3 -12 -11
-19 -21 -17 -19 -44 5 -65 11 -10 20 -24 20 -30 0 -10 10 -11 37 -5 20 5 40 7
44 4 10 -6 19 22 18 54 0 26 -1 26 -9 5 -13 -32 -18 -28 -17 12 1 22 6 35 14
35 17 0 17 20 1 20 -7 0 -5 5 5 11 13 8 15 15 7 28 -9 18 -4 31 12 31 4 0 8
-7 8 -15 0 -8 4 -15 10 -15 10 0 9 35 -1 45 -10 10 -79 14 -79 4 0 -5 8 -22
17 -37 17 -26 17 -26 0 -13 -11 9 -21 11 -25 5 -4 -5 -15 -10 -24 -10 -18 -2
-22 10 -18 54 1 12 -3 22 -9 22 -6 0 -11 -13 -11 -29z"/>
<path d="M9450 3901 c0 -6 5 -13 10 -16 6 -3 10 -1 10 5 0 7 7 10 15 6 8 -3
15 -1 15 4 0 6 -11 10 -25 10 -14 0 -25 -4 -25 -9z"/>
<path d="M6114 3893 c-12 -2 -24 -13 -27 -24 -5 -19 -27 -27 -27 -9 0 6 5 10
10 10 6 0 10 5 10 11 0 21 -33 4 -37 -19 -2 -13 1 -21 6 -17 6 3 13 -11 17
-30 5 -26 11 -35 21 -31 8 3 20 6 27 6 6 0 16 24 22 55 5 30 7 54 4 54 -3 -1
-15 -4 -26 -6z"/>
<path d="M8820 3880 c0 -5 5 -10 10 -10 6 0 10 5 10 10 0 6 -4 10 -10 10 -5 0
-10 -4 -10 -10z"/>
<path d="M9551 3874 c0 -11 3 -14 6 -6 3 7 2 16 -1 19 -3 4 -6 -2 -5 -13z"/>
<path d="M9331 3864 c0 -11 3 -14 6 -6 3 7 2 16 -1 19 -3 4 -6 -2 -5 -13z"/>
<path d="M9458 3857 c-10 -14 -12 -30 -8 -43 12 -30 -21 -70 -45 -57 -17 10
-17 11 3 17 27 9 29 26 3 26 -25 0 -38 20 -20 31 11 7 11 9 -2 9 -9 0 -22 -7
-29 -15 -7 -8 -16 -12 -21 -9 -5 3 -9 -2 -9 -11 0 -13 4 -14 20 -5 15 8 20 8
21 -2 0 -7 2 -23 4 -34 3 -13 -4 -29 -15 -39 -11 -10 -20 -24 -20 -32 0 -18
39 -17 46 2 4 8 11 15 16 15 6 0 8 -7 4 -15 -5 -13 2 -15 42 -9 53 7 68 14 29
14 -51 0 -34 15 21 18 66 4 73 7 65 30 -14 40 -25 43 -51 17 -16 -16 -29 -22
-35 -16 -14 14 -15 100 0 105 18 7 25 -9 17 -39 -4 -17 -2 -25 7 -25 9 0 14
11 13 28 -2 61 -30 80 -56 39z"/>
<path d="M10140 3871 c0 -5 9 -11 20 -14 13 -3 20 0 20 9 0 8 -9 14 -20 14
-11 0 -20 -4 -20 -9z"/>
<path d="M9602 3844 c-7 -8 -8 -14 -3 -14 10 0 25 19 20 25 -2 1 -10 -3 -17
-11z"/>
<path d="M9550 3823 c0 -22 2 -25 10 -13 13 20 13 40 0 40 -5 0 -10 -12 -10
-27z"/>
<path d="M10141 3831 c-7 -5 -10 -14 -7 -20 11 -17 22 -13 22 9 0 11 0 20 -1
20 0 0 -6 -4 -14 -9z"/>
<path d="M5755 3819 c-4 -6 -5 -12 -2 -15 2 -3 7 2 10 11 7 17 1 20 -8 4z"/>
<path d="M6988 3762 c-47 -15 -70 -40 -25 -27 31 9 87 35 87 40 0 6 -6 5 -62
-13z"/>
<path d="M9601 3759 l-24 -22 24 -19 c23 -19 23 -19 31 1 4 12 4 30 0 41 -8
20 -8 20 -31 -1z"/>
<path d="M10191 3754 c0 -11 3 -14 6 -6 3 7 2 16 -1 19 -3 4 -6 -2 -5 -13z"/>
<path d="M10221 3754 c0 -11 3 -14 6 -6 3 7 2 16 -1 19 -3 4 -6 -2 -5 -13z"/>
<path d="M6201 3744 c0 -11 3 -14 6 -6 3 7 2 16 -1 19 -3 4 -6 -2 -5 -13z"/>
<path d="M9833 3748 c2 -7 1 -22 -4 -33 -7 -17 -8 -16 -8 8 -1 17 -7 27 -16
27 -9 0 -12 -6 -9 -15 4 -8 1 -21 -5 -29 -15 -18 -3 -106 15 -106 9 0 14 12
14 33 0 22 3 28 9 18 5 -7 6 -22 4 -32 -4 -12 0 -19 9 -19 10 0 13 13 13 48
-3 94 -5 112 -16 112 -6 0 -9 -6 -6 -12z"/>
<path d="M7405 3720 c-3 -5 1 -10 9 -10 9 0 16 -4 16 -10 0 -5 -4 -10 -10 -10
-5 0 -10 -8 -10 -17 1 -17 1 -17 11 0 6 9 13 15 17 13 4 -3 8 4 8 14 0 11 -2
17 -5 15 -2 -3 -10 0 -17 6 -8 7 -14 7 -19 -1z"/>
<path d="M8250 3706 c0 -14 5 -26 10 -26 6 0 10 9 10 19 0 11 -4 23 -10 26 -6
4 -10 -5 -10 -19z"/>
<path d="M10196 3721 c-4 -7 -5 -15 -2 -18 9 -9 19 4 14 18 -4 11 -6 11 -12 0z"/>
<path d="M7325 3700 c-3 -5 0 -10 7 -10 10 0 10 -2 -1 -9 -16 -10 -6 -31 15
-31 9 0 12 8 10 23 -3 12 -5 25 -5 30 -1 10 -19 9 -26 -3z"/>
<path d="M9640 3679 c0 -11 4 -18 10 -14 5 3 7 12 3 20 -7 21 -13 19 -13 -6z"/>
<path d="M9701 3672 c-16 -30 -13 -72 5 -79 22 -8 34 15 27 52 -8 41 -19 51
-32 27z m11 -47 c3 -13 1 -22 -3 -19 -9 5 -13 44 -5 44 2 0 6 -11 8 -25z"/>
<path d="M9330 3620 c0 -19 5 -21 55 -24 11 -1 21 -9 23 -20 3 -15 0 -17 -14
-11 -11 4 -26 8 -34 8 -8 0 -18 5 -22 11 -5 6 -8 2 -8 -11 0 -20 5 -21 73 -21
73 0 74 1 86 32 7 17 15 25 18 19 8 -22 35 -15 31 9 -6 40 -65 32 -70 -9 -2
-16 -10 -27 -20 -29 -22 -3 -23 12 -3 33 23 22 12 29 -54 31 -55 2 -61 1 -61
-18z"/>
<path d="M9560 3633 c22 -9 28 -21 22 -49 -4 -24 -27 -33 -34 -13 -2 7 -9 5
-17 -5 -12 -14 -9 -16 27 -16 48 0 51 3 45 53 -5 32 -8 37 -32 36 -15 0 -20
-3 -11 -6z"/>
<path d="M5280 2910 l0 -110 58 6 c128 13 172 42 172 111 0 75 -42 103 -155
103 l-75 0 0 -110z"/>
<path d="M4284 2707 c-17 -61 -30 -114 -28 -116 1 -1 34 2 71 9 l69 12 -34
104 c-19 57 -38 104 -41 104 -3 0 -20 -51 -37 -113z"/>
<path d="M6270 2902 l0 -101 54 -6 c112 -14 166 12 166 82 0 80 -35 107 -154
119 l-66 7 0 -101z"/>
<path d="M7388 2889 c-19 -7 -36 -29 -55 -67 -25 -51 -28 -70 -32 -177 -7
-255 44 -363 176 -373 99 -7 134 38 152 198 20 179 -18 350 -89 400 -34 24
-113 34 -152 19z"/>
<path d="M10540 2469 c-7 -24 -21 -71 -31 -104 -28 -90 -29 -88 49 -80 37 4
68 8 69 9 3 3 -63 206 -70 212 -3 3 -11 -14 -17 -37z"/>
</g>
</svg>
